<svg width="600" height="450" viewBox="0 0 600 450" fill="none" xmlns="http://www.w3.org/2000/svg">
<g filter="url(#filter0_d_301_71)">
<path d="M8 21L50 39.0247L30.1226 44L25.2941 61L8 21Z" fill="#7C3AED"/>
<path d="M25.1964 59.514L8.95767 21.9551L48.4406 38.8996L30.0012 43.515L29.7207 43.5852L29.6417 43.8634L25.1964 59.514Z" stroke="white"/>
</g>
<g filter="url(#filter1_d_301_71)">
<rect x="39" y="54" width="285" height="204" rx="20" fill="#0F172A"/>
<rect x="39.5" y="54.5" width="284" height="203" rx="19.5" stroke="#0F2F76"/>
<path d="M75.4953 108V91.7077H69.6766V89.0554H84.2368V91.7077H78.4182V108H75.4953ZM89.7906 108.379C88.4374 108.379 87.2556 108.099 86.2453 107.54C85.2349 106.963 84.441 106.16 83.8637 105.131C83.3043 104.085 83.0247 102.876 83.0247 101.505V101.18C83.0247 99.7907 83.3043 98.5818 83.8637 97.5534C84.423 96.507 85.1988 95.7041 86.1911 95.1448C87.2015 94.5674 88.3652 94.2787 89.6823 94.2787C90.9634 94.2787 92.082 94.5674 93.0382 95.1448C94.0125 95.7041 94.7703 96.4889 95.3116 97.4993C95.8529 98.5097 96.1235 99.6915 96.1235 101.045V102.1H85.8664C85.9024 103.273 86.2904 104.211 87.0301 104.915C87.7879 105.6 88.7261 105.943 89.8447 105.943C90.8912 105.943 91.676 105.709 92.1993 105.24C92.7405 104.77 93.1555 104.229 93.4442 103.616L95.7446 104.806C95.492 105.312 95.1221 105.844 94.635 106.403C94.1659 106.963 93.5434 107.432 92.7676 107.811C91.9918 108.189 90.9994 108.379 89.7906 108.379ZM85.8934 99.9621H93.2818C93.2096 98.9517 92.8488 98.1669 92.1993 97.6076C91.5497 97.0302 90.7017 96.7415 89.6553 96.7415C88.6088 96.7415 87.7518 97.0302 87.0842 97.6076C86.4347 98.1669 86.0378 98.9517 85.8934 99.9621ZM105 108.379C103.719 108.379 102.555 108.108 101.509 107.567C100.48 107.026 99.6594 106.241 99.0459 105.212C98.4505 104.184 98.1528 102.948 98.1528 101.505V101.153C98.1528 99.7095 98.4505 98.4826 99.0459 97.4722C99.6594 96.4438 100.48 95.659 101.509 95.1177C102.555 94.5584 103.719 94.2787 105 94.2787C106.281 94.2787 107.373 94.5133 108.275 94.9824C109.177 95.4515 109.898 96.074 110.44 96.8498C110.999 97.6256 111.36 98.4826 111.522 99.4208L108.816 99.9892C108.726 99.3938 108.536 98.8525 108.248 98.3653C107.959 97.8782 107.553 97.4903 107.03 97.2016C106.506 96.9129 105.848 96.7686 105.054 96.7686C104.278 96.7686 103.575 96.949 102.943 97.3099C102.33 97.6527 101.843 98.1579 101.482 98.8254C101.121 99.4749 100.94 100.269 100.94 101.207V101.451C100.94 102.389 101.121 103.192 101.482 103.859C101.843 104.527 102.33 105.032 102.943 105.375C103.575 105.718 104.278 105.889 105.054 105.889C106.227 105.889 107.12 105.591 107.733 104.996C108.347 104.382 108.735 103.607 108.897 102.668L111.603 103.291C111.387 104.211 110.999 105.059 110.44 105.835C109.898 106.611 109.177 107.233 108.275 107.702C107.373 108.153 106.281 108.379 105 108.379ZM114.142 108V89.0554H116.93V96.5521H117.363C117.543 96.2093 117.796 95.8755 118.12 95.5507C118.463 95.226 118.905 94.9643 119.446 94.7659C120.006 94.5494 120.709 94.4411 121.557 94.4411C122.568 94.4411 123.461 94.6666 124.237 95.1177C125.031 95.5688 125.653 96.2093 126.104 97.0392C126.555 97.8511 126.781 98.8344 126.781 99.9892V108H123.993V100.206C123.993 99.051 123.704 98.203 123.127 97.6617C122.55 97.1024 121.756 96.8227 120.745 96.8227C119.591 96.8227 118.662 97.2016 117.958 97.9594C117.272 98.7172 116.93 99.8178 116.93 101.261V108H114.142ZM142.697 108.379C141.272 108.379 140.009 108.126 138.908 107.621C137.808 107.116 136.942 106.376 136.31 105.402C135.697 104.41 135.39 103.21 135.39 101.802V101.126H138.286V101.802C138.286 103.138 138.683 104.139 139.477 104.806C140.289 105.474 141.362 105.808 142.697 105.808C144.05 105.808 145.07 105.528 145.755 104.969C146.441 104.392 146.784 103.652 146.784 102.75C146.784 102.154 146.622 101.667 146.297 101.288C145.972 100.909 145.512 100.612 144.917 100.395C144.321 100.161 143.608 99.9441 142.778 99.7456L141.777 99.502C140.568 99.2133 139.513 98.8615 138.611 98.4465C137.727 98.0135 137.041 97.4452 136.554 96.7415C136.067 96.0379 135.823 95.1357 135.823 94.0352C135.823 92.9165 136.094 91.9603 136.635 91.1664C137.194 90.3725 137.961 89.7591 138.935 89.3261C139.91 88.8931 141.055 88.6766 142.373 88.6766C143.69 88.6766 144.862 88.9021 145.891 89.3531C146.937 89.8042 147.758 90.4718 148.354 91.3559C148.949 92.2399 149.247 93.3495 149.247 94.6847V95.659H146.351V94.6847C146.351 93.8728 146.179 93.2142 145.837 92.709C145.512 92.2038 145.052 91.834 144.456 91.5994C143.861 91.3649 143.166 91.2476 142.373 91.2476C141.218 91.2476 140.316 91.4912 139.666 91.9783C139.035 92.4474 138.719 93.106 138.719 93.954C138.719 94.5313 138.854 95.0094 139.125 95.3883C139.414 95.7492 139.829 96.0469 140.37 96.2814C140.911 96.516 141.588 96.7235 142.4 96.9039L143.401 97.1475C144.628 97.4181 145.71 97.7699 146.649 98.203C147.587 98.6179 148.327 99.1863 148.868 99.908C149.409 100.63 149.68 101.559 149.68 102.696C149.68 103.832 149.391 104.825 148.814 105.673C148.254 106.521 147.451 107.188 146.405 107.675C145.359 108.144 144.123 108.379 142.697 108.379ZM157.159 108C156.348 108 155.698 107.756 155.211 107.269C154.742 106.782 154.507 106.133 154.507 105.321V97.0122H150.827V94.6576H154.507V90.2462H157.295V94.6576H161.273V97.0122H157.295V104.834C157.295 105.375 157.547 105.645 158.053 105.645H160.84V108H157.159ZM167.986 108.379C167.029 108.379 166.172 108.217 165.415 107.892C164.675 107.567 164.08 107.089 163.628 106.457C163.195 105.826 162.979 105.059 162.979 104.157C162.979 103.237 163.195 102.479 163.628 101.884C164.08 101.27 164.684 100.81 165.442 100.503C166.218 100.197 167.093 100.043 168.067 100.043H172.126V99.1772C172.126 98.4014 171.892 97.779 171.423 97.3099C170.954 96.8408 170.232 96.6062 169.258 96.6062C168.301 96.6062 167.571 96.8317 167.066 97.2828C166.56 97.7339 166.227 98.3202 166.064 99.0419L163.466 98.203C163.683 97.4813 164.025 96.8317 164.495 96.2544C164.982 95.659 165.622 95.1808 166.416 94.82C167.21 94.4592 168.166 94.2787 169.285 94.2787C171.017 94.2787 172.379 94.7208 173.371 95.6048C174.364 96.4889 174.86 97.7429 174.86 99.3667V104.861C174.86 105.402 175.112 105.673 175.618 105.673H176.754V108H174.67C174.039 108 173.525 107.838 173.128 107.513C172.731 107.188 172.532 106.746 172.532 106.187V106.106H172.126C171.982 106.376 171.766 106.692 171.477 107.053C171.188 107.414 170.764 107.729 170.205 108C169.646 108.253 168.906 108.379 167.986 108.379ZM168.392 106.078C169.51 106.078 170.412 105.763 171.098 105.131C171.784 104.482 172.126 103.598 172.126 102.479V102.208H168.229C167.49 102.208 166.894 102.371 166.443 102.696C165.992 103.002 165.767 103.462 165.767 104.076C165.767 104.689 166.001 105.176 166.47 105.537C166.939 105.898 167.58 106.078 168.392 106.078ZM184.669 108.379C183.388 108.379 182.224 108.108 181.177 107.567C180.149 107.026 179.328 106.241 178.715 105.212C178.119 104.184 177.821 102.948 177.821 101.505V101.153C177.821 99.7095 178.119 98.4826 178.715 97.4722C179.328 96.4438 180.149 95.659 181.177 95.1177C182.224 94.5584 183.388 94.2787 184.669 94.2787C185.95 94.2787 187.041 94.5133 187.943 94.9824C188.845 95.4515 189.567 96.074 190.108 96.8498C190.668 97.6256 191.029 98.4826 191.191 99.4208L188.485 99.9892C188.394 99.3938 188.205 98.8525 187.916 98.3653C187.628 97.8782 187.222 97.4903 186.698 97.2016C186.175 96.9129 185.517 96.7686 184.723 96.7686C183.947 96.7686 183.243 96.949 182.612 97.3099C181.998 97.6527 181.511 98.1579 181.15 98.8254C180.789 99.4749 180.609 100.269 180.609 101.207V101.451C180.609 102.389 180.789 103.192 181.15 103.859C181.511 104.527 181.998 105.032 182.612 105.375C183.243 105.718 183.947 105.889 184.723 105.889C185.895 105.889 186.789 105.591 187.402 104.996C188.015 104.382 188.403 103.607 188.566 102.668L191.272 103.291C191.056 104.211 190.668 105.059 190.108 105.835C189.567 106.611 188.845 107.233 187.943 107.702C187.041 108.153 185.95 108.379 184.669 108.379ZM193.811 108V89.0554H196.598V99.8538H197.031L202.282 94.6576H205.989L199.25 101.126L206.206 108H202.525L197.031 102.452H196.598V108H193.811Z" fill="#949494"/>
<path d="M102.71 173.066C102.285 172.919 101.844 172.781 101.39 172.65C101.465 172.345 101.533 172.045 101.594 171.749C102.593 166.9 101.94 162.993 99.7095 161.706C97.5707 160.473 94.0727 161.759 90.5399 164.833C90.2002 165.129 89.8595 165.442 89.519 165.77C89.2921 165.553 89.0656 165.343 88.8396 165.143C85.1371 161.855 81.426 160.47 79.1976 161.76C77.0607 162.997 76.4279 166.67 77.3272 171.266C77.4141 171.71 77.5156 172.163 77.6304 172.624C77.1052 172.773 76.5981 172.932 76.1129 173.101C71.7722 174.615 69 176.987 69 179.447C69 181.988 71.976 184.536 76.4972 186.082C76.854 186.204 77.2242 186.319 77.6057 186.428C77.4819 186.927 77.3742 187.415 77.2838 187.892C76.4262 192.408 77.0959 195.994 79.227 197.224C81.4283 198.493 85.1227 197.188 88.7201 194.044C89.0044 193.795 89.2897 193.531 89.5756 193.255C89.9461 193.612 90.3161 193.95 90.684 194.266C94.1685 197.265 97.61 198.476 99.7392 197.243C101.938 195.97 102.653 192.118 101.725 187.431C101.654 187.073 101.572 186.707 101.479 186.335C101.739 186.258 101.993 186.179 102.242 186.097C106.942 184.539 110 182.022 110 179.447C110 176.978 107.138 174.59 102.71 173.066ZM101.691 184.434C101.467 184.508 101.237 184.58 101.002 184.65C100.483 183.007 99.783 181.26 98.926 179.455C99.7438 177.694 100.417 175.969 100.921 174.337C101.341 174.459 101.748 174.587 102.14 174.722C105.934 176.028 108.248 177.959 108.248 179.447C108.248 181.032 105.749 183.089 101.691 184.434ZM100.007 187.771C100.417 189.843 100.476 191.717 100.204 193.182C99.9598 194.498 99.4687 195.376 98.8615 195.727C97.5694 196.475 94.8063 195.503 91.8263 192.939C91.4847 192.645 91.1406 192.331 90.7954 191.999C91.9506 190.735 93.1053 189.266 94.2321 187.635C96.2142 187.459 98.0868 187.172 99.7849 186.779C99.8686 187.116 99.9429 187.447 100.007 187.771ZM82.9778 195.598C81.7154 196.044 80.71 196.057 80.1022 195.706C78.8089 194.96 78.2713 192.081 79.0047 188.219C79.0887 187.776 79.1887 187.322 79.3039 186.857C80.9834 187.229 82.8423 187.496 84.8291 187.657C85.9636 189.253 87.1515 190.721 88.3487 192.005C88.0871 192.258 87.8266 192.498 87.5675 192.725C85.9768 194.115 84.3827 195.102 82.9778 195.598ZM77.0636 184.424C75.0644 183.741 73.4134 182.853 72.2817 181.884C71.2648 181.013 70.7514 180.148 70.7514 179.447C70.7514 177.954 72.9772 176.05 76.6895 174.755C77.1399 174.598 77.6114 174.45 78.1008 174.311C78.6138 175.98 79.2868 177.725 80.099 179.489C79.2763 181.28 78.5937 183.053 78.0757 184.741C77.7268 184.641 77.3888 184.535 77.0636 184.424ZM79.0461 170.93C78.2756 166.992 78.7873 164.021 80.0751 163.276C81.4467 162.482 84.4798 163.614 87.6766 166.453C87.881 166.634 88.0861 166.824 88.2918 167.02C87.1006 168.299 85.9235 169.756 84.7991 171.343C82.8708 171.521 81.025 171.808 79.328 172.193C79.2213 171.764 79.1268 171.342 79.0461 170.93ZM96.7317 175.297C96.326 174.596 95.9095 173.912 95.4849 173.246C96.7931 173.412 98.0464 173.631 99.2234 173.9C98.8701 175.032 98.4296 176.216 97.9112 177.43C97.5393 176.724 97.1459 176.012 96.7317 175.297ZM89.5196 168.272C90.3274 169.147 91.1365 170.125 91.9323 171.185C91.1304 171.147 90.3185 171.127 89.5 171.127C88.6892 171.127 87.8834 171.146 87.0864 171.184C87.883 170.133 88.699 169.157 89.5196 168.272ZM82.2612 175.309C81.856 176.012 81.4699 176.72 81.1039 177.429C80.5938 176.219 80.1575 175.03 79.801 173.881C80.9708 173.619 82.2183 173.405 83.5181 173.243C83.0875 173.915 82.6676 174.604 82.2612 175.309V175.309ZM83.5555 185.775C82.2126 185.626 80.9464 185.423 79.7769 185.168C80.139 183.999 80.585 182.784 81.1058 181.548C81.4728 182.257 81.8604 182.966 82.2682 183.67H82.2682C82.6836 184.387 83.1139 185.09 83.5555 185.775ZM89.568 190.745C88.7379 189.849 87.9099 188.859 87.1012 187.793C87.8862 187.824 88.6866 187.839 89.5 187.839C90.3357 187.839 91.1618 187.821 91.975 187.784C91.1766 188.869 90.3704 189.862 89.568 190.745ZM97.9279 181.485C98.4759 182.734 98.9378 183.943 99.3046 185.092C98.1159 185.363 96.8324 185.582 95.4801 185.744C95.9057 185.07 96.3258 184.374 96.7387 183.658C97.1563 182.933 97.5529 182.208 97.9279 181.485ZM95.2215 182.783C94.5806 183.894 93.9226 184.955 93.2546 185.956C92.038 186.043 90.7811 186.088 89.5 186.088C88.2241 186.088 86.983 186.048 85.7879 185.971C85.093 184.956 84.4207 183.892 83.7839 182.792H83.784C83.1489 181.695 82.5643 180.589 82.0346 179.489C82.5642 178.386 83.1472 177.279 83.7787 176.184L83.7786 176.184C84.4117 175.086 85.0781 174.027 85.7666 173.019C86.9859 172.927 88.2363 172.879 89.4999 172.879H89.5C90.7693 172.879 92.0213 172.927 93.2403 173.02C93.9182 174.021 94.5801 175.076 95.2157 176.174C95.8586 177.285 96.4492 178.385 96.9832 179.464C96.4508 180.562 95.8615 181.673 95.2215 182.783ZM98.8347 163.224C100.208 164.016 100.742 167.209 99.8789 171.396C99.8239 171.663 99.7619 171.935 99.6946 172.211C97.9936 171.819 96.1465 171.526 94.2126 171.345C93.0861 169.741 91.9186 168.282 90.7468 167.02C91.0618 166.716 91.3764 166.427 91.6897 166.155C94.7166 163.521 97.5457 162.48 98.8347 163.224ZM89.5 175.786C91.522 175.786 93.1612 177.425 93.1612 179.447C93.1612 181.469 91.522 183.108 89.5 183.108C87.478 183.108 85.8388 181.469 85.8388 179.447C85.8388 177.425 87.478 175.786 89.5 175.786Z" fill="#00D8FF"/>
<path fill-rule="evenodd" clip-rule="evenodd" d="M140.536 199.445C139.986 199.445 139.472 199.298 138.994 199.041L134.111 196.141C133.377 195.737 133.744 195.59 133.964 195.517C134.956 195.186 135.139 195.113 136.167 194.525C136.277 194.452 136.424 194.489 136.534 194.562L140.279 196.802C140.426 196.875 140.61 196.875 140.72 196.802L155.369 188.32C155.516 188.247 155.59 188.1 155.59 187.917V170.991C155.59 170.807 155.516 170.66 155.369 170.587L140.72 162.142C140.573 162.069 140.389 162.069 140.279 162.142L125.63 170.587C125.483 170.66 125.41 170.844 125.41 170.991V187.917C125.41 188.063 125.483 188.247 125.63 188.32L129.632 190.634C131.798 191.735 133.156 190.45 133.156 189.165V172.459C133.156 172.239 133.34 172.019 133.597 172.019H135.47C135.69 172.019 135.91 172.202 135.91 172.459V189.165C135.91 192.065 134.331 193.754 131.578 193.754C130.733 193.754 130.072 193.754 128.2 192.836L124.345 190.634C123.39 190.083 122.803 189.055 122.803 187.953V171.027C122.803 169.926 123.39 168.898 124.345 168.347L138.994 159.866C139.912 159.352 141.16 159.352 142.078 159.866L156.728 168.347C157.682 168.898 158.27 169.926 158.27 171.027V187.953C158.27 189.055 157.682 190.083 156.728 190.634L142.078 199.115C141.601 199.335 141.05 199.445 140.536 199.445ZM145.052 187.806C138.627 187.806 137.305 184.869 137.305 182.373C137.305 182.152 137.489 181.932 137.746 181.932H139.655C139.875 181.932 140.059 182.079 140.059 182.299C140.353 184.245 141.197 185.2 145.089 185.2C148.173 185.2 149.495 184.502 149.495 182.85C149.495 181.895 149.128 181.198 144.318 180.72C140.316 180.316 137.819 179.435 137.819 176.241C137.819 173.267 140.316 171.505 144.502 171.505C149.201 171.505 151.514 173.12 151.808 176.645C151.808 176.755 151.771 176.865 151.698 176.975C151.624 177.049 151.514 177.122 151.404 177.122H149.495C149.311 177.122 149.128 176.975 149.091 176.792C148.65 174.772 147.512 174.112 144.502 174.112C141.124 174.112 140.72 175.286 140.72 176.168C140.72 177.232 141.197 177.563 145.75 178.15C150.266 178.738 152.395 179.582 152.395 182.74C152.359 185.971 149.715 187.806 145.052 187.806Z" fill="#539E43"/>
<g clip-path="url(#clip0_301_71)">
<path d="M184.72 200C188.492 200 191.553 196.939 191.553 193.167V186.333H184.72C180.948 186.333 177.887 189.395 177.887 193.167C177.887 196.939 180.948 200 184.72 200Z" fill="#0ACF83"/>
<path d="M177.887 179.5C177.887 175.728 180.948 172.667 184.72 172.667H191.553V186.333H184.72C180.948 186.333 177.887 183.272 177.887 179.5Z" fill="#A259FF"/>
<path d="M177.887 165.833C177.887 162.061 180.948 159 184.72 159H191.553V172.667H184.72C180.948 172.667 177.887 169.605 177.887 165.833Z" fill="#F24E1E"/>
<path d="M191.553 159H198.387C202.159 159 205.22 162.061 205.22 165.833C205.22 169.605 202.159 172.667 198.387 172.667H191.553V159Z" fill="#FF7262"/>
<path d="M205.22 179.5C205.22 183.272 202.159 186.333 198.387 186.333C194.615 186.333 191.553 183.272 191.553 179.5C191.553 175.728 194.615 172.667 198.387 172.667C202.159 172.667 205.22 175.728 205.22 179.5Z" fill="#1ABCFE"/>
</g>
<g clip-path="url(#clip1_301_71)">
<path fill-rule="evenodd" clip-rule="evenodd" d="M261.611 177.725L244.198 160.313C243.196 159.31 241.569 159.31 240.566 160.313L236.95 163.929L241.537 168.516C242.603 168.156 243.825 168.397 244.675 169.247C245.529 170.102 245.768 171.335 245.4 172.404L249.82 176.825C250.89 176.457 252.124 176.695 252.978 177.551C254.172 178.744 254.172 180.678 252.978 181.872C251.784 183.067 249.85 183.067 248.655 181.872C247.757 180.973 247.535 179.655 247.99 178.548L243.867 174.426L243.867 185.275C244.158 185.419 244.432 185.611 244.675 185.853C245.869 187.046 245.869 188.98 244.675 190.175C243.481 191.369 241.546 191.369 240.353 190.175C239.159 188.98 239.159 187.046 240.353 185.853C240.648 185.558 240.989 185.336 241.353 185.186V174.236C240.989 174.087 240.648 173.865 240.353 173.569C239.449 172.666 239.231 171.338 239.694 170.228L235.173 165.705L223.233 177.645C222.23 178.648 222.23 180.275 223.233 181.278L240.647 198.691C241.649 199.694 243.275 199.694 244.279 198.691L261.611 181.359C262.614 180.356 262.614 178.728 261.611 177.725Z" fill="#DE4C36"/>
</g>
</g>
<defs>
<filter id="filter0_d_301_71" x="4" y="21" width="50" height="48" filterUnits="userSpaceOnUse" color-interpolation-filters="sRGB">
<feFlood flood-opacity="0" result="BackgroundImageFix"/>
<feColorMatrix in="SourceAlpha" type="matrix" values="0 0 0 0 0 0 0 0 0 0 0 0 0 0 0 0 0 0 127 0" result="hardAlpha"/>
<feOffset dy="4"/>
<feGaussianBlur stdDeviation="2"/>
<feComposite in2="hardAlpha" operator="out"/>
<feColorMatrix type="matrix" values="0 0 0 0 0 0 0 0 0 0 0 0 0 0 0 0 0 0 0.25 0"/>
<feBlend mode="normal" in2="BackgroundImageFix" result="effect1_dropShadow_301_71"/>
<feBlend mode="normal" in="SourceGraphic" in2="effect1_dropShadow_301_71" result="shape"/>
</filter>
<filter id="filter1_d_301_71" x="35" y="54" width="293" height="212" filterUnits="userSpaceOnUse" color-interpolation-filters="sRGB">
<feFlood flood-opacity="0" result="BackgroundImageFix"/>
<feColorMatrix in="SourceAlpha" type="matrix" values="0 0 0 0 0 0 0 0 0 0 0 0 0 0 0 0 0 0 127 0" result="hardAlpha"/>
<feOffset dy="4"/>
<feGaussianBlur stdDeviation="2"/>
<feComposite in2="hardAlpha" operator="out"/>
<feColorMatrix type="matrix" values="0 0 0 0 0 0 0 0 0 0 0 0 0 0 0 0 0 0 0.25 0"/>
<feBlend mode="normal" in2="BackgroundImageFix" result="effect1_dropShadow_301_71"/>
<feBlend mode="normal" in="SourceGraphic" in2="effect1_dropShadow_301_71" result="shape"/>
</filter>
<clipPath id="clip0_301_71">
<rect width="41" height="41" fill="white" transform="translate(171 159)"/>
</clipPath>
<clipPath id="clip1_301_71">
<rect width="40.0391" height="39.8833" fill="white" transform="translate(222.48 159.561)"/>
</clipPath>
</defs>
</svg>
