<svg width="743" height="450" viewBox="0 0 743 450" fill="none" xmlns="http://www.w3.org/2000/svg">
<g filter="url(#filter0_d_301_300)">
<path d="M4 0L46 18.0247L26.1226 23L21.2941 40L4 0Z" fill="#7C3AED"/>
<path d="M21.1964 38.514L4.95767 0.955092L44.4406 17.8996L26.0012 22.515L25.7207 22.5852L25.6417 22.8634L21.1964 38.514Z" stroke="white"/>
</g>
<g filter="url(#filter1_d_301_300)">
<rect x="35" y="33" width="285" height="204" rx="20" fill="#0F172A"/>
<rect x="35.5" y="33.5" width="284" height="203" rx="19.5" stroke="#0F2F76"/>
<path d="M71.4953 87V70.7077H65.6766V68.0554H80.2368V70.7077H74.4182V87H71.4953ZM85.7906 87.3789C84.4374 87.3789 83.2556 87.0992 82.2453 86.5399C81.2349 85.9626 80.441 85.1597 79.8637 84.1313C79.3043 83.0848 79.0247 81.8759 79.0247 80.5047V80.18C79.0247 78.7907 79.3043 77.5818 79.8637 76.5534C80.423 75.507 81.1988 74.7041 82.1911 74.1448C83.2015 73.5674 84.3652 73.2787 85.6823 73.2787C86.9634 73.2787 88.082 73.5674 89.0382 74.1448C90.0125 74.7041 90.7703 75.4889 91.3116 76.4993C91.8529 77.5097 92.1235 78.6915 92.1235 80.0446V81.1001H81.8664C81.9024 82.2729 82.2904 83.2111 83.0301 83.9147C83.7879 84.6004 84.7261 84.9432 85.8447 84.9432C86.8912 84.9432 87.676 84.7086 88.1993 84.2395C88.7405 83.7704 89.1555 83.2291 89.4442 82.6157L91.7446 83.8065C91.492 84.3117 91.1221 84.8439 90.635 85.4032C90.1659 85.9626 89.5434 86.4317 88.7676 86.8106C87.9918 87.1894 86.9994 87.3789 85.7906 87.3789ZM81.8934 78.9621H89.2818C89.2096 77.9517 88.8488 77.1669 88.1993 76.6076C87.5497 76.0302 86.7017 75.7415 85.6553 75.7415C84.6088 75.7415 83.7518 76.0302 83.0842 76.6076C82.4347 77.1669 82.0378 77.9517 81.8934 78.9621ZM101 87.3789C99.7189 87.3789 98.5552 87.1083 97.5087 86.567C96.4803 86.0257 95.6594 85.2409 95.0459 84.2124C94.4505 83.184 94.1528 81.9481 94.1528 80.5047V80.1529C94.1528 78.7095 94.4505 77.4826 95.0459 76.4722C95.6594 75.4438 96.4803 74.659 97.5087 74.1177C98.5552 73.5584 99.7189 73.2787 101 73.2787C102.281 73.2787 103.373 73.5133 104.275 73.9824C105.177 74.4515 105.898 75.074 106.44 75.8498C106.999 76.6256 107.36 77.4826 107.522 78.4208L104.816 78.9892C104.726 78.3938 104.536 77.8525 104.248 77.3653C103.959 76.8782 103.553 76.4903 103.03 76.2016C102.506 75.9129 101.848 75.7686 101.054 75.7686C100.278 75.7686 99.5746 75.949 98.9431 76.3099C98.3297 76.6527 97.8425 77.1579 97.4817 77.8254C97.1208 78.4749 96.9404 79.2688 96.9404 80.207V80.4506C96.9404 81.3888 97.1208 82.1917 97.4817 82.8593C97.8425 83.5268 98.3297 84.032 98.9431 84.3748C99.5746 84.7176 100.278 84.889 101.054 84.889C102.227 84.889 103.12 84.5913 103.733 83.9959C104.347 83.3825 104.735 82.6067 104.897 81.6685L107.603 82.2909C107.387 83.2111 106.999 84.0591 106.44 84.8349C105.898 85.6107 105.177 86.2332 104.275 86.7023C103.373 87.1534 102.281 87.3789 101 87.3789ZM110.142 87V68.0554H112.93V75.5521H113.363C113.543 75.2093 113.796 74.8755 114.12 74.5507C114.463 74.226 114.905 73.9643 115.446 73.7659C116.006 73.5494 116.709 73.4411 117.557 73.4411C118.568 73.4411 119.461 73.6666 120.237 74.1177C121.031 74.5688 121.653 75.2093 122.104 76.0392C122.555 76.8511 122.781 77.8344 122.781 78.9892V87H119.993V79.2057C119.993 78.051 119.704 77.203 119.127 76.6617C118.55 76.1024 117.756 75.8227 116.745 75.8227C115.591 75.8227 114.662 76.2016 113.958 76.9594C113.272 77.7172 112.93 78.8178 112.93 80.2612V87H110.142ZM138.697 87.3789C137.272 87.3789 136.009 87.1263 134.908 86.6211C133.808 86.1159 132.942 85.3762 132.31 84.4019C131.697 83.4096 131.39 82.2097 131.39 80.8024V80.1258H134.286V80.8024C134.286 82.1376 134.683 83.1389 135.477 83.8065C136.289 84.4741 137.362 84.8078 138.697 84.8078C140.05 84.8078 141.07 84.5282 141.755 83.9689C142.441 83.3915 142.784 82.6518 142.784 81.7497C142.784 81.1543 142.622 80.6671 142.297 80.2882C141.972 79.9093 141.512 79.6116 140.917 79.3951C140.321 79.1606 139.608 78.9441 138.778 78.7456L137.777 78.502C136.568 78.2133 135.513 77.8615 134.611 77.4465C133.727 77.0135 133.041 76.4452 132.554 75.7415C132.067 75.0379 131.823 74.1357 131.823 73.0352C131.823 71.9165 132.094 70.9603 132.635 70.1664C133.194 69.3725 133.961 68.7591 134.935 68.3261C135.91 67.8931 137.055 67.6766 138.373 67.6766C139.69 67.6766 140.862 67.9021 141.891 68.3531C142.937 68.8042 143.758 69.4718 144.354 70.3559C144.949 71.2399 145.247 72.3495 145.247 73.6847V74.659H142.351V73.6847C142.351 72.8728 142.179 72.2142 141.837 71.709C141.512 71.2038 141.052 70.834 140.456 70.5994C139.861 70.3649 139.166 70.2476 138.373 70.2476C137.218 70.2476 136.316 70.4912 135.666 70.9783C135.035 71.4474 134.719 72.106 134.719 72.954C134.719 73.5313 134.854 74.0094 135.125 74.3883C135.414 74.7492 135.829 75.0469 136.37 75.2814C136.911 75.516 137.588 75.7235 138.4 75.9039L139.401 76.1475C140.628 76.4181 141.71 76.7699 142.649 77.203C143.587 77.6179 144.327 78.1863 144.868 78.908C145.409 79.6297 145.68 80.5589 145.68 81.6955C145.68 82.8322 145.391 83.8245 144.814 84.6725C144.254 85.5205 143.451 86.1881 142.405 86.6752C141.359 87.1443 140.123 87.3789 138.697 87.3789ZM153.159 87C152.348 87 151.698 86.7564 151.211 86.2693C150.742 85.7821 150.507 85.1326 150.507 84.3207V76.0122H146.827V73.6576H150.507V69.2462H153.295V73.6576H157.273V76.0122H153.295V83.8336C153.295 84.3748 153.547 84.6455 154.053 84.6455H156.84V87H153.159ZM163.986 87.3789C163.029 87.3789 162.172 87.2165 161.415 86.8917C160.675 86.567 160.08 86.0889 159.628 85.4574C159.195 84.8259 158.979 84.0591 158.979 83.157C158.979 82.2368 159.195 81.479 159.628 80.8836C160.08 80.2702 160.684 79.8101 161.442 79.5034C162.218 79.1966 163.093 79.0433 164.067 79.0433H168.126V78.1772C168.126 77.4014 167.892 76.779 167.423 76.3099C166.954 75.8408 166.232 75.6062 165.258 75.6062C164.301 75.6062 163.571 75.8317 163.066 76.2828C162.56 76.7339 162.227 77.3202 162.064 78.0419L159.466 77.203C159.683 76.4813 160.025 75.8317 160.495 75.2544C160.982 74.659 161.622 74.1808 162.416 73.82C163.21 73.4592 164.166 73.2787 165.285 73.2787C167.017 73.2787 168.379 73.7208 169.371 74.6048C170.364 75.4889 170.86 76.7429 170.86 78.3667V83.8606C170.86 84.4019 171.112 84.6725 171.618 84.6725H172.754V87H170.67C170.039 87 169.525 86.8376 169.128 86.5129C168.731 86.1881 168.532 85.7461 168.532 85.1867V85.1055H168.126C167.982 85.3762 167.766 85.6919 167.477 86.0528C167.188 86.4136 166.764 86.7294 166.205 87C165.646 87.2526 164.906 87.3789 163.986 87.3789ZM164.392 85.0785C165.51 85.0785 166.412 84.7627 167.098 84.1313C167.784 83.4817 168.126 82.5976 168.126 81.479V81.2084H164.229C163.49 81.2084 162.894 81.3708 162.443 81.6955C161.992 82.0022 161.767 82.4623 161.767 83.0758C161.767 83.6892 162.001 84.1764 162.47 84.5372C162.939 84.8981 163.58 85.0785 164.392 85.0785ZM180.669 87.3789C179.388 87.3789 178.224 87.1083 177.177 86.567C176.149 86.0257 175.328 85.2409 174.715 84.2124C174.119 83.184 173.821 81.9481 173.821 80.5047V80.1529C173.821 78.7095 174.119 77.4826 174.715 76.4722C175.328 75.4438 176.149 74.659 177.177 74.1177C178.224 73.5584 179.388 73.2787 180.669 73.2787C181.95 73.2787 183.041 73.5133 183.943 73.9824C184.845 74.4515 185.567 75.074 186.108 75.8498C186.668 76.6256 187.029 77.4826 187.191 78.4208L184.485 78.9892C184.394 78.3938 184.205 77.8525 183.916 77.3653C183.628 76.8782 183.222 76.4903 182.698 76.2016C182.175 75.9129 181.517 75.7686 180.723 75.7686C179.947 75.7686 179.243 75.949 178.612 76.3099C177.998 76.6527 177.511 77.1579 177.15 77.8254C176.789 78.4749 176.609 79.2688 176.609 80.207V80.4506C176.609 81.3888 176.789 82.1917 177.15 82.8593C177.511 83.5268 177.998 84.032 178.612 84.3748C179.243 84.7176 179.947 84.889 180.723 84.889C181.895 84.889 182.789 84.5913 183.402 83.9959C184.015 83.3825 184.403 82.6067 184.566 81.6685L187.272 82.2909C187.056 83.2111 186.668 84.0591 186.108 84.8349C185.567 85.6107 184.845 86.2332 183.943 86.7023C183.041 87.1534 181.95 87.3789 180.669 87.3789ZM189.811 87V68.0554H192.598V78.8538H193.031L198.282 73.6576H201.989L195.25 80.1258L202.206 87H198.525L193.031 81.452H192.598V87H189.811Z" fill="#949494"/>
<path d="M98.7102 152.066C98.2849 151.919 97.8442 151.781 97.3904 151.65C97.465 151.345 97.5334 151.045 97.5943 150.749C98.5934 145.9 97.9402 141.993 95.7095 140.706C93.5707 139.473 90.0727 140.759 86.5399 143.833C86.2002 144.129 85.8595 144.442 85.519 144.77C85.2921 144.553 85.0656 144.343 84.8396 144.143C81.1371 140.855 77.426 139.47 75.1976 140.76C73.0607 141.997 72.4279 145.67 73.3272 150.266C73.4141 150.71 73.5156 151.163 73.6304 151.624C73.1052 151.773 72.5981 151.932 72.1129 152.101C67.7722 153.615 65 155.987 65 158.447C65 160.988 67.976 163.536 72.4972 165.082C72.854 165.204 73.2242 165.319 73.6057 165.428C73.4819 165.927 73.3742 166.415 73.2838 166.892C72.4262 171.408 73.0959 174.994 75.227 176.224C77.4283 177.493 81.1227 176.188 84.7201 173.044C85.0044 172.795 85.2897 172.531 85.5756 172.255C85.9461 172.612 86.3161 172.95 86.684 173.266C90.1685 176.265 93.61 177.476 95.7392 176.243C97.9383 174.97 98.6529 171.118 97.7251 166.431C97.6542 166.073 97.5718 165.707 97.4791 165.335C97.7386 165.258 97.9933 165.179 98.2416 165.097C102.942 163.539 106 161.022 106 158.447C106 155.978 103.138 153.59 98.7102 152.066ZM97.6908 163.434C97.4666 163.508 97.2366 163.58 97.0021 163.65C96.4833 162.007 95.783 160.26 94.926 158.455C95.7438 156.694 96.417 154.969 96.9214 153.337C97.3408 153.459 97.7478 153.587 98.1401 153.722C101.934 155.028 104.248 156.959 104.248 158.447C104.248 160.032 101.749 162.089 97.6908 163.434ZM96.0069 166.771C96.4171 168.843 96.4757 170.717 96.204 172.182C95.9598 173.498 95.4687 174.376 94.8615 174.727C93.5694 175.475 90.8063 174.503 87.8263 171.939C87.4847 171.645 87.1406 171.331 86.7954 170.999C87.9506 169.735 89.1053 168.266 90.2321 166.635C92.2142 166.459 94.0868 166.172 95.7849 165.779C95.8686 166.116 95.9429 166.447 96.0069 166.771ZM78.9778 174.598C77.7154 175.044 76.71 175.057 76.1022 174.706C74.8089 173.96 74.2713 171.081 75.0047 167.219C75.0887 166.776 75.1887 166.322 75.3039 165.857C76.9834 166.229 78.8423 166.496 80.8291 166.657C81.9636 168.253 83.1515 169.721 84.3487 171.005C84.0871 171.258 83.8266 171.498 83.5675 171.725C81.9768 173.115 80.3827 174.102 78.9778 174.598ZM73.0636 163.424C71.0644 162.741 69.4134 161.853 68.2817 160.884C67.2648 160.013 66.7514 159.148 66.7514 158.447C66.7514 156.954 68.9772 155.05 72.6895 153.755C73.1399 153.598 73.6114 153.45 74.1008 153.311C74.6138 154.98 75.2868 156.725 76.099 158.489C75.2763 160.28 74.5937 162.053 74.0757 163.741C73.7268 163.641 73.3888 163.535 73.0636 163.424ZM75.0461 149.93C74.2756 145.992 74.7873 143.021 76.0751 142.276C77.4467 141.482 80.4798 142.614 83.6766 145.453C83.881 145.634 84.0861 145.824 84.2918 146.02C83.1006 147.299 81.9235 148.756 80.7991 150.343C78.8708 150.521 77.025 150.808 75.328 151.193C75.2213 150.764 75.1268 150.342 75.0461 149.93ZM92.7317 154.297C92.326 153.596 91.9095 152.912 91.4849 152.246C92.7931 152.412 94.0464 152.631 95.2234 152.9C94.8701 154.032 94.4296 155.216 93.9112 156.43C93.5393 155.724 93.1459 155.012 92.7317 154.297ZM85.5196 147.272C86.3274 148.147 87.1365 149.125 87.9323 150.185C87.1304 150.147 86.3185 150.127 85.5 150.127C84.6892 150.127 83.8834 150.146 83.0864 150.184C83.883 149.133 84.699 148.157 85.5196 147.272ZM78.2612 154.309C77.856 155.012 77.4699 155.72 77.1039 156.429C76.5938 155.219 76.1575 154.03 75.801 152.881C76.9708 152.619 78.2183 152.405 79.5181 152.243C79.0875 152.915 78.6676 153.604 78.2612 154.309V154.309ZM79.5555 164.775C78.2126 164.626 76.9464 164.423 75.7769 164.168C76.139 162.999 76.585 161.784 77.1058 160.548C77.4728 161.257 77.8604 161.966 78.2682 162.67H78.2682C78.6836 163.387 79.1139 164.09 79.5555 164.775ZM85.568 169.745C84.7379 168.849 83.9099 167.859 83.1012 166.793C83.8862 166.824 84.6866 166.839 85.5 166.839C86.3357 166.839 87.1618 166.821 87.975 166.784C87.1766 167.869 86.3704 168.862 85.568 169.745ZM93.9279 160.485C94.4759 161.734 94.9378 162.943 95.3046 164.092C94.1159 164.363 92.8324 164.582 91.4801 164.744C91.9057 164.07 92.3258 163.374 92.7387 162.658C93.1563 161.933 93.5529 161.208 93.9279 160.485ZM91.2215 161.783C90.5806 162.894 89.9226 163.955 89.2546 164.956C88.038 165.043 86.7811 165.088 85.5 165.088C84.2241 165.088 82.983 165.048 81.7879 164.971C81.093 163.956 80.4207 162.892 79.7839 161.792H79.784C79.1489 160.695 78.5643 159.589 78.0346 158.489C78.5642 157.386 79.1472 156.279 79.7787 155.184L79.7786 155.184C80.4117 154.086 81.0781 153.027 81.7666 152.019C82.9859 151.927 84.2363 151.879 85.4999 151.879H85.5C86.7693 151.879 88.0213 151.927 89.2403 152.02C89.9182 153.021 90.5801 154.076 91.2157 155.174C91.8586 156.285 92.4492 157.385 92.9832 158.464C92.4508 159.562 91.8615 160.673 91.2215 161.783ZM94.8347 142.224C96.2076 143.016 96.7415 146.209 95.8789 150.396C95.8239 150.663 95.7619 150.935 95.6946 151.211C93.9936 150.819 92.1465 150.526 90.2126 150.345C89.0861 148.741 87.9186 147.282 86.7468 146.02C87.0618 145.716 87.3764 145.427 87.6897 145.155C90.7166 142.521 93.5457 141.48 94.8347 142.224ZM85.5 154.786C87.522 154.786 89.1612 156.425 89.1612 158.447C89.1612 160.469 87.522 162.108 85.5 162.108C83.478 162.108 81.8388 160.469 81.8388 158.447C81.8388 156.425 83.478 154.786 85.5 154.786Z" fill="#00D8FF"/>
<path fill-rule="evenodd" clip-rule="evenodd" d="M136.536 178.445C135.986 178.445 135.472 178.298 134.994 178.041L130.111 175.141C129.377 174.737 129.744 174.59 129.964 174.517C130.956 174.186 131.139 174.113 132.167 173.525C132.277 173.452 132.424 173.489 132.534 173.562L136.279 175.802C136.426 175.875 136.61 175.875 136.72 175.802L151.369 167.32C151.516 167.247 151.59 167.1 151.59 166.917V149.991C151.59 149.807 151.516 149.66 151.369 149.587L136.72 141.142C136.573 141.069 136.389 141.069 136.279 141.142L121.63 149.587C121.483 149.66 121.41 149.844 121.41 149.991V166.917C121.41 167.063 121.483 167.247 121.63 167.32L125.632 169.634C127.798 170.735 129.156 169.45 129.156 168.165V151.459C129.156 151.239 129.34 151.019 129.597 151.019H131.47C131.69 151.019 131.91 151.202 131.91 151.459V168.165C131.91 171.065 130.331 172.754 127.578 172.754C126.733 172.754 126.072 172.754 124.2 171.836L120.345 169.634C119.39 169.083 118.803 168.055 118.803 166.953V150.027C118.803 148.926 119.39 147.898 120.345 147.347L134.994 138.866C135.912 138.352 137.16 138.352 138.078 138.866L152.728 147.347C153.682 147.898 154.27 148.926 154.27 150.027V166.953C154.27 168.055 153.682 169.083 152.728 169.634L138.078 178.115C137.601 178.335 137.05 178.445 136.536 178.445ZM141.052 166.806C134.627 166.806 133.305 163.869 133.305 161.373C133.305 161.152 133.489 160.932 133.746 160.932H135.655C135.875 160.932 136.059 161.079 136.059 161.299C136.353 163.245 137.197 164.2 141.089 164.2C144.173 164.2 145.495 163.502 145.495 161.85C145.495 160.895 145.128 160.198 140.318 159.72C136.316 159.316 133.819 158.435 133.819 155.241C133.819 152.267 136.316 150.505 140.502 150.505C145.201 150.505 147.514 152.12 147.808 155.645C147.808 155.755 147.771 155.865 147.698 155.975C147.624 156.049 147.514 156.122 147.404 156.122H145.495C145.311 156.122 145.128 155.975 145.091 155.792C144.65 153.772 143.512 153.112 140.502 153.112C137.124 153.112 136.72 154.286 136.72 155.168C136.72 156.232 137.197 156.563 141.75 157.15C146.266 157.738 148.395 158.582 148.395 161.74C148.359 164.971 145.715 166.806 141.052 166.806Z" fill="#539E43"/>
<g clip-path="url(#clip0_301_300)">
<path d="M180.72 179C184.492 179 187.553 175.939 187.553 172.167V165.333H180.72C176.948 165.333 173.887 168.395 173.887 172.167C173.887 175.939 176.948 179 180.72 179Z" fill="#0ACF83"/>
<path d="M173.887 158.5C173.887 154.728 176.948 151.667 180.72 151.667H187.553V165.333H180.72C176.948 165.333 173.887 162.272 173.887 158.5Z" fill="#A259FF"/>
<path d="M173.887 144.833C173.887 141.061 176.948 138 180.72 138H187.553V151.667H180.72C176.948 151.667 173.887 148.605 173.887 144.833Z" fill="#F24E1E"/>
<path d="M187.553 138H194.387C198.159 138 201.22 141.061 201.22 144.833C201.22 148.605 198.159 151.667 194.387 151.667H187.553V138Z" fill="#FF7262"/>
<path d="M201.22 158.5C201.22 162.272 198.159 165.333 194.387 165.333C190.615 165.333 187.553 162.272 187.553 158.5C187.553 154.728 190.615 151.667 194.387 151.667C198.159 151.667 201.22 154.728 201.22 158.5Z" fill="#1ABCFE"/>
</g>
<g clip-path="url(#clip1_301_300)">
<path fill-rule="evenodd" clip-rule="evenodd" d="M257.611 156.725L240.198 139.313C239.196 138.31 237.569 138.31 236.566 139.313L232.95 142.929L237.537 147.516C238.603 147.156 239.825 147.397 240.675 148.247C241.529 149.102 241.768 150.335 241.4 151.404L245.82 155.825C246.89 155.457 248.124 155.695 248.978 156.551C250.172 157.744 250.172 159.678 248.978 160.872C247.784 162.067 245.85 162.067 244.655 160.872C243.757 159.973 243.535 158.655 243.99 157.548L239.867 153.426L239.867 164.275C240.158 164.419 240.432 164.611 240.675 164.853C241.869 166.046 241.869 167.98 240.675 169.175C239.481 170.369 237.546 170.369 236.353 169.175C235.159 167.98 235.159 166.046 236.353 164.853C236.648 164.558 236.989 164.336 237.353 164.186V153.236C236.989 153.087 236.648 152.865 236.353 152.569C235.449 151.666 235.231 150.338 235.694 149.228L231.173 144.705L219.233 156.645C218.23 157.648 218.23 159.275 219.233 160.278L236.647 177.691C237.649 178.694 239.275 178.694 240.279 177.691L257.611 160.359C258.614 159.356 258.614 157.728 257.611 156.725Z" fill="#DE4C36"/>
</g>
</g>
<defs>
<filter id="filter0_d_301_300" x="0" y="0" width="50" height="48" filterUnits="userSpaceOnUse" color-interpolation-filters="sRGB">
<feFlood flood-opacity="0" result="BackgroundImageFix"/>
<feColorMatrix in="SourceAlpha" type="matrix" values="0 0 0 0 0 0 0 0 0 0 0 0 0 0 0 0 0 0 127 0" result="hardAlpha"/>
<feOffset dy="4"/>
<feGaussianBlur stdDeviation="2"/>
<feComposite in2="hardAlpha" operator="out"/>
<feColorMatrix type="matrix" values="0 0 0 0 0 0 0 0 0 0 0 0 0 0 0 0 0 0 0.25 0"/>
<feBlend mode="normal" in2="BackgroundImageFix" result="effect1_dropShadow_301_300"/>
<feBlend mode="normal" in="SourceGraphic" in2="effect1_dropShadow_301_300" result="shape"/>
</filter>
<filter id="filter1_d_301_300" x="31" y="33" width="293" height="212" filterUnits="userSpaceOnUse" color-interpolation-filters="sRGB">
<feFlood flood-opacity="0" result="BackgroundImageFix"/>
<feColorMatrix in="SourceAlpha" type="matrix" values="0 0 0 0 0 0 0 0 0 0 0 0 0 0 0 0 0 0 127 0" result="hardAlpha"/>
<feOffset dy="4"/>
<feGaussianBlur stdDeviation="2"/>
<feComposite in2="hardAlpha" operator="out"/>
<feColorMatrix type="matrix" values="0 0 0 0 0 0 0 0 0 0 0 0 0 0 0 0 0 0 0.25 0"/>
<feBlend mode="normal" in2="BackgroundImageFix" result="effect1_dropShadow_301_300"/>
<feBlend mode="normal" in="SourceGraphic" in2="effect1_dropShadow_301_300" result="shape"/>
</filter>
<clipPath id="clip0_301_300">
<rect width="41" height="41" fill="white" transform="translate(167 138)"/>
</clipPath>
<clipPath id="clip1_301_300">
<rect width="40.0391" height="39.8833" fill="white" transform="translate(218.48 138.561)"/>
</clipPath>
</defs>
</svg>
