<svg width="703" height="450" viewBox="0 0 703 450" fill="none" xmlns="http://www.w3.org/2000/svg">
<g filter="url(#filter0_d_301_281)">
<path d="M4 60L46 78.0247L26.1226 83L21.2941 100L4 60Z" fill="#7C3AED"/>
<path d="M21.1964 98.514L4.95767 60.9551L44.4406 77.8996L26.0012 82.515L25.7207 82.5852L25.6417 82.8634L21.1964 98.514Z" stroke="white"/>
</g>
<g filter="url(#filter1_d_301_281)">
<rect x="35" y="93" width="285" height="204" rx="20" fill="#0F172A"/>
<rect x="35.5" y="93.5" width="284" height="203" rx="19.5" stroke="#0F2F76"/>
<path d="M71.4953 147V130.708H65.6766V128.055H80.2368V130.708H74.4182V147H71.4953ZM85.7906 147.379C84.4374 147.379 83.2556 147.099 82.2453 146.54C81.2349 145.963 80.441 145.16 79.8637 144.131C79.3043 143.085 79.0247 141.876 79.0247 140.505V140.18C79.0247 138.791 79.3043 137.582 79.8637 136.553C80.423 135.507 81.1988 134.704 82.1911 134.145C83.2015 133.567 84.3652 133.279 85.6823 133.279C86.9634 133.279 88.082 133.567 89.0382 134.145C90.0125 134.704 90.7703 135.489 91.3116 136.499C91.8529 137.51 92.1235 138.691 92.1235 140.045V141.1H81.8664C81.9024 142.273 82.2904 143.211 83.0301 143.915C83.7879 144.6 84.7261 144.943 85.8447 144.943C86.8912 144.943 87.676 144.709 88.1993 144.24C88.7405 143.77 89.1555 143.229 89.4442 142.616L91.7446 143.806C91.492 144.312 91.1221 144.844 90.635 145.403C90.1659 145.963 89.5434 146.432 88.7676 146.811C87.9918 147.189 86.9994 147.379 85.7906 147.379ZM81.8934 138.962H89.2818C89.2096 137.952 88.8488 137.167 88.1993 136.608C87.5497 136.03 86.7017 135.742 85.6553 135.742C84.6088 135.742 83.7518 136.03 83.0842 136.608C82.4347 137.167 82.0378 137.952 81.8934 138.962ZM101 147.379C99.7189 147.379 98.5552 147.108 97.5087 146.567C96.4803 146.026 95.6594 145.241 95.0459 144.212C94.4505 143.184 94.1528 141.948 94.1528 140.505V140.153C94.1528 138.71 94.4505 137.483 95.0459 136.472C95.6594 135.444 96.4803 134.659 97.5087 134.118C98.5552 133.558 99.7189 133.279 101 133.279C102.281 133.279 103.373 133.513 104.275 133.982C105.177 134.451 105.898 135.074 106.44 135.85C106.999 136.626 107.36 137.483 107.522 138.421L104.816 138.989C104.726 138.394 104.536 137.852 104.248 137.365C103.959 136.878 103.553 136.49 103.03 136.202C102.506 135.913 101.848 135.769 101.054 135.769C100.278 135.769 99.5746 135.949 98.9431 136.31C98.3297 136.653 97.8425 137.158 97.4817 137.825C97.1208 138.475 96.9404 139.269 96.9404 140.207V140.451C96.9404 141.389 97.1208 142.192 97.4817 142.859C97.8425 143.527 98.3297 144.032 98.9431 144.375C99.5746 144.718 100.278 144.889 101.054 144.889C102.227 144.889 103.12 144.591 103.733 143.996C104.347 143.382 104.735 142.607 104.897 141.668L107.603 142.291C107.387 143.211 106.999 144.059 106.44 144.835C105.898 145.611 105.177 146.233 104.275 146.702C103.373 147.153 102.281 147.379 101 147.379ZM110.142 147V128.055H112.93V135.552H113.363C113.543 135.209 113.796 134.875 114.12 134.551C114.463 134.226 114.905 133.964 115.446 133.766C116.006 133.549 116.709 133.441 117.557 133.441C118.568 133.441 119.461 133.667 120.237 134.118C121.031 134.569 121.653 135.209 122.104 136.039C122.555 136.851 122.781 137.834 122.781 138.989V147H119.993V139.206C119.993 138.051 119.704 137.203 119.127 136.662C118.55 136.102 117.756 135.823 116.745 135.823C115.591 135.823 114.662 136.202 113.958 136.959C113.272 137.717 112.93 138.818 112.93 140.261V147H110.142ZM138.697 147.379C137.272 147.379 136.009 147.126 134.908 146.621C133.808 146.116 132.942 145.376 132.31 144.402C131.697 143.41 131.39 142.21 131.39 140.802V140.126H134.286V140.802C134.286 142.138 134.683 143.139 135.477 143.806C136.289 144.474 137.362 144.808 138.697 144.808C140.05 144.808 141.07 144.528 141.755 143.969C142.441 143.392 142.784 142.652 142.784 141.75C142.784 141.154 142.622 140.667 142.297 140.288C141.972 139.909 141.512 139.612 140.917 139.395C140.321 139.161 139.608 138.944 138.778 138.746L137.777 138.502C136.568 138.213 135.513 137.862 134.611 137.447C133.727 137.014 133.041 136.445 132.554 135.742C132.067 135.038 131.823 134.136 131.823 133.035C131.823 131.917 132.094 130.96 132.635 130.166C133.194 129.373 133.961 128.759 134.935 128.326C135.91 127.893 137.055 127.677 138.373 127.677C139.69 127.677 140.862 127.902 141.891 128.353C142.937 128.804 143.758 129.472 144.354 130.356C144.949 131.24 145.247 132.35 145.247 133.685V134.659H142.351V133.685C142.351 132.873 142.179 132.214 141.837 131.709C141.512 131.204 141.052 130.834 140.456 130.599C139.861 130.365 139.166 130.248 138.373 130.248C137.218 130.248 136.316 130.491 135.666 130.978C135.035 131.447 134.719 132.106 134.719 132.954C134.719 133.531 134.854 134.009 135.125 134.388C135.414 134.749 135.829 135.047 136.37 135.281C136.911 135.516 137.588 135.723 138.4 135.904L139.401 136.147C140.628 136.418 141.71 136.77 142.649 137.203C143.587 137.618 144.327 138.186 144.868 138.908C145.409 139.63 145.68 140.559 145.68 141.696C145.68 142.832 145.391 143.825 144.814 144.673C144.254 145.521 143.451 146.188 142.405 146.675C141.359 147.144 140.123 147.379 138.697 147.379ZM153.159 147C152.348 147 151.698 146.756 151.211 146.269C150.742 145.782 150.507 145.133 150.507 144.321V136.012H146.827V133.658H150.507V129.246H153.295V133.658H157.273V136.012H153.295V143.834C153.295 144.375 153.547 144.645 154.053 144.645H156.84V147H153.159ZM163.986 147.379C163.029 147.379 162.172 147.217 161.415 146.892C160.675 146.567 160.08 146.089 159.628 145.457C159.195 144.826 158.979 144.059 158.979 143.157C158.979 142.237 159.195 141.479 159.628 140.884C160.08 140.27 160.684 139.81 161.442 139.503C162.218 139.197 163.093 139.043 164.067 139.043H168.126V138.177C168.126 137.401 167.892 136.779 167.423 136.31C166.954 135.841 166.232 135.606 165.258 135.606C164.301 135.606 163.571 135.832 163.066 136.283C162.56 136.734 162.227 137.32 162.064 138.042L159.466 137.203C159.683 136.481 160.025 135.832 160.495 135.254C160.982 134.659 161.622 134.181 162.416 133.82C163.21 133.459 164.166 133.279 165.285 133.279C167.017 133.279 168.379 133.721 169.371 134.605C170.364 135.489 170.86 136.743 170.86 138.367V143.861C170.86 144.402 171.112 144.673 171.618 144.673H172.754V147H170.67C170.039 147 169.525 146.838 169.128 146.513C168.731 146.188 168.532 145.746 168.532 145.187V145.106H168.126C167.982 145.376 167.766 145.692 167.477 146.053C167.188 146.414 166.764 146.729 166.205 147C165.646 147.253 164.906 147.379 163.986 147.379ZM164.392 145.078C165.51 145.078 166.412 144.763 167.098 144.131C167.784 143.482 168.126 142.598 168.126 141.479V141.208H164.229C163.49 141.208 162.894 141.371 162.443 141.696C161.992 142.002 161.767 142.462 161.767 143.076C161.767 143.689 162.001 144.176 162.47 144.537C162.939 144.898 163.58 145.078 164.392 145.078ZM180.669 147.379C179.388 147.379 178.224 147.108 177.177 146.567C176.149 146.026 175.328 145.241 174.715 144.212C174.119 143.184 173.821 141.948 173.821 140.505V140.153C173.821 138.71 174.119 137.483 174.715 136.472C175.328 135.444 176.149 134.659 177.177 134.118C178.224 133.558 179.388 133.279 180.669 133.279C181.95 133.279 183.041 133.513 183.943 133.982C184.845 134.451 185.567 135.074 186.108 135.85C186.668 136.626 187.029 137.483 187.191 138.421L184.485 138.989C184.394 138.394 184.205 137.852 183.916 137.365C183.628 136.878 183.222 136.49 182.698 136.202C182.175 135.913 181.517 135.769 180.723 135.769C179.947 135.769 179.243 135.949 178.612 136.31C177.998 136.653 177.511 137.158 177.15 137.825C176.789 138.475 176.609 139.269 176.609 140.207V140.451C176.609 141.389 176.789 142.192 177.15 142.859C177.511 143.527 177.998 144.032 178.612 144.375C179.243 144.718 179.947 144.889 180.723 144.889C181.895 144.889 182.789 144.591 183.402 143.996C184.015 143.382 184.403 142.607 184.566 141.668L187.272 142.291C187.056 143.211 186.668 144.059 186.108 144.835C185.567 145.611 184.845 146.233 183.943 146.702C183.041 147.153 181.95 147.379 180.669 147.379ZM189.811 147V128.055H192.598V138.854H193.031L198.282 133.658H201.989L195.25 140.126L202.206 147H198.525L193.031 141.452H192.598V147H189.811Z" fill="#949494"/>
<path d="M98.7102 212.066C98.2849 211.919 97.8442 211.781 97.3904 211.65C97.465 211.345 97.5334 211.045 97.5943 210.749C98.5934 205.9 97.9402 201.993 95.7095 200.706C93.5707 199.473 90.0727 200.759 86.5399 203.833C86.2002 204.129 85.8595 204.442 85.519 204.77C85.2921 204.553 85.0656 204.343 84.8396 204.143C81.1371 200.855 77.426 199.47 75.1976 200.76C73.0607 201.997 72.4279 205.67 73.3272 210.266C73.4141 210.71 73.5156 211.163 73.6304 211.624C73.1052 211.773 72.5981 211.932 72.1129 212.101C67.7722 213.615 65 215.987 65 218.447C65 220.988 67.976 223.536 72.4972 225.082C72.854 225.204 73.2242 225.319 73.6057 225.428C73.4819 225.927 73.3742 226.415 73.2838 226.892C72.4262 231.408 73.0959 234.994 75.227 236.224C77.4283 237.493 81.1227 236.188 84.7201 233.044C85.0044 232.795 85.2897 232.531 85.5756 232.255C85.9461 232.612 86.3161 232.95 86.684 233.266C90.1685 236.265 93.61 237.476 95.7392 236.243C97.9383 234.97 98.6529 231.118 97.7251 226.431C97.6542 226.073 97.5718 225.707 97.4791 225.335C97.7386 225.258 97.9933 225.179 98.2416 225.097C102.942 223.539 106 221.022 106 218.447C106 215.978 103.138 213.59 98.7102 212.066ZM97.6908 223.434C97.4666 223.508 97.2366 223.58 97.0021 223.65C96.4833 222.007 95.783 220.26 94.926 218.455C95.7438 216.694 96.417 214.969 96.9214 213.337C97.3408 213.459 97.7478 213.587 98.1401 213.722C101.934 215.028 104.248 216.959 104.248 218.447C104.248 220.032 101.749 222.089 97.6908 223.434ZM96.0069 226.771C96.4171 228.843 96.4757 230.717 96.204 232.182C95.9598 233.498 95.4687 234.376 94.8615 234.727C93.5694 235.475 90.8063 234.503 87.8263 231.939C87.4847 231.645 87.1406 231.331 86.7954 230.999C87.9506 229.735 89.1053 228.266 90.2321 226.635C92.2142 226.459 94.0868 226.172 95.7849 225.779C95.8686 226.116 95.9429 226.447 96.0069 226.771ZM78.9778 234.598C77.7154 235.044 76.71 235.057 76.1022 234.706C74.8089 233.96 74.2713 231.081 75.0047 227.219C75.0887 226.776 75.1887 226.322 75.3039 225.857C76.9834 226.229 78.8423 226.496 80.8291 226.657C81.9636 228.253 83.1515 229.721 84.3487 231.005C84.0871 231.258 83.8266 231.498 83.5675 231.725C81.9768 233.115 80.3827 234.102 78.9778 234.598ZM73.0636 223.424C71.0644 222.741 69.4134 221.853 68.2817 220.884C67.2648 220.013 66.7514 219.148 66.7514 218.447C66.7514 216.954 68.9772 215.05 72.6895 213.755C73.1399 213.598 73.6114 213.45 74.1008 213.311C74.6138 214.98 75.2868 216.725 76.099 218.489C75.2763 220.28 74.5937 222.053 74.0757 223.741C73.7268 223.641 73.3888 223.535 73.0636 223.424ZM75.0461 209.93C74.2756 205.992 74.7873 203.021 76.0751 202.276C77.4467 201.482 80.4798 202.614 83.6766 205.453C83.881 205.634 84.0861 205.824 84.2918 206.02C83.1006 207.299 81.9235 208.756 80.7991 210.343C78.8708 210.521 77.025 210.808 75.328 211.193C75.2213 210.764 75.1268 210.342 75.0461 209.93ZM92.7317 214.297C92.326 213.596 91.9095 212.912 91.4849 212.246C92.7931 212.412 94.0464 212.631 95.2234 212.9C94.8701 214.032 94.4296 215.216 93.9112 216.43C93.5393 215.724 93.1459 215.012 92.7317 214.297ZM85.5196 207.272C86.3274 208.147 87.1365 209.125 87.9323 210.185C87.1304 210.147 86.3185 210.127 85.5 210.127C84.6892 210.127 83.8834 210.146 83.0864 210.184C83.883 209.133 84.699 208.157 85.5196 207.272ZM78.2612 214.309C77.856 215.012 77.4699 215.72 77.1039 216.429C76.5938 215.219 76.1575 214.03 75.801 212.881C76.9708 212.619 78.2183 212.405 79.5181 212.243C79.0875 212.915 78.6676 213.604 78.2612 214.309V214.309ZM79.5555 224.775C78.2126 224.626 76.9464 224.423 75.7769 224.168C76.139 222.999 76.585 221.784 77.1058 220.548C77.4728 221.257 77.8604 221.966 78.2682 222.67H78.2682C78.6836 223.387 79.1139 224.09 79.5555 224.775ZM85.568 229.745C84.7379 228.849 83.9099 227.859 83.1012 226.793C83.8862 226.824 84.6866 226.839 85.5 226.839C86.3357 226.839 87.1618 226.821 87.975 226.784C87.1766 227.869 86.3704 228.862 85.568 229.745ZM93.9279 220.485C94.4759 221.734 94.9378 222.943 95.3046 224.092C94.1159 224.363 92.8324 224.582 91.4801 224.744C91.9057 224.07 92.3258 223.374 92.7387 222.658C93.1563 221.933 93.5529 221.208 93.9279 220.485ZM91.2215 221.783C90.5806 222.894 89.9226 223.955 89.2546 224.956C88.038 225.043 86.7811 225.088 85.5 225.088C84.2241 225.088 82.983 225.048 81.7879 224.971C81.093 223.956 80.4207 222.892 79.7839 221.792H79.784C79.1489 220.695 78.5643 219.589 78.0346 218.489C78.5642 217.386 79.1472 216.279 79.7787 215.184L79.7786 215.184C80.4117 214.086 81.0781 213.027 81.7666 212.019C82.9859 211.927 84.2363 211.879 85.4999 211.879H85.5C86.7693 211.879 88.0213 211.927 89.2403 212.02C89.9182 213.021 90.5801 214.076 91.2157 215.174C91.8586 216.285 92.4492 217.385 92.9832 218.464C92.4508 219.562 91.8615 220.673 91.2215 221.783ZM94.8347 202.224C96.2076 203.016 96.7415 206.209 95.8789 210.396C95.8239 210.663 95.7619 210.935 95.6946 211.211C93.9936 210.819 92.1465 210.526 90.2126 210.345C89.0861 208.741 87.9186 207.282 86.7468 206.02C87.0618 205.716 87.3764 205.427 87.6897 205.155C90.7166 202.521 93.5457 201.48 94.8347 202.224ZM85.5 214.786C87.522 214.786 89.1612 216.425 89.1612 218.447C89.1612 220.469 87.522 222.108 85.5 222.108C83.478 222.108 81.8388 220.469 81.8388 218.447C81.8388 216.425 83.478 214.786 85.5 214.786Z" fill="#00D8FF"/>
<path fill-rule="evenodd" clip-rule="evenodd" d="M136.536 238.445C135.986 238.445 135.472 238.298 134.994 238.041L130.111 235.141C129.377 234.737 129.744 234.59 129.964 234.517C130.956 234.186 131.139 234.113 132.167 233.525C132.277 233.452 132.424 233.489 132.534 233.562L136.279 235.802C136.426 235.875 136.61 235.875 136.72 235.802L151.369 227.32C151.516 227.247 151.59 227.1 151.59 226.917V209.991C151.59 209.807 151.516 209.66 151.369 209.587L136.72 201.142C136.573 201.069 136.389 201.069 136.279 201.142L121.63 209.587C121.483 209.66 121.41 209.844 121.41 209.991V226.917C121.41 227.063 121.483 227.247 121.63 227.32L125.632 229.634C127.798 230.735 129.156 229.45 129.156 228.165V211.459C129.156 211.239 129.34 211.019 129.597 211.019H131.47C131.69 211.019 131.91 211.202 131.91 211.459V228.165C131.91 231.065 130.331 232.754 127.578 232.754C126.733 232.754 126.072 232.754 124.2 231.836L120.345 229.634C119.39 229.083 118.803 228.055 118.803 226.953V210.027C118.803 208.926 119.39 207.898 120.345 207.347L134.994 198.866C135.912 198.352 137.16 198.352 138.078 198.866L152.728 207.347C153.682 207.898 154.27 208.926 154.27 210.027V226.953C154.27 228.055 153.682 229.083 152.728 229.634L138.078 238.115C137.601 238.335 137.05 238.445 136.536 238.445ZM141.052 226.806C134.627 226.806 133.305 223.869 133.305 221.373C133.305 221.152 133.489 220.932 133.746 220.932H135.655C135.875 220.932 136.059 221.079 136.059 221.299C136.353 223.245 137.197 224.2 141.089 224.2C144.173 224.2 145.495 223.502 145.495 221.85C145.495 220.895 145.128 220.198 140.318 219.72C136.316 219.316 133.819 218.435 133.819 215.241C133.819 212.267 136.316 210.505 140.502 210.505C145.201 210.505 147.514 212.12 147.808 215.645C147.808 215.755 147.771 215.865 147.698 215.975C147.624 216.049 147.514 216.122 147.404 216.122H145.495C145.311 216.122 145.128 215.975 145.091 215.792C144.65 213.772 143.512 213.112 140.502 213.112C137.124 213.112 136.72 214.286 136.72 215.168C136.72 216.232 137.197 216.563 141.75 217.15C146.266 217.738 148.395 218.582 148.395 221.74C148.359 224.971 145.715 226.806 141.052 226.806Z" fill="#539E43"/>
<g clip-path="url(#clip0_301_281)">
<path d="M180.72 239C184.492 239 187.553 235.939 187.553 232.167V225.333H180.72C176.948 225.333 173.887 228.395 173.887 232.167C173.887 235.939 176.948 239 180.72 239Z" fill="#0ACF83"/>
<path d="M173.887 218.5C173.887 214.728 176.948 211.667 180.72 211.667H187.553V225.333H180.72C176.948 225.333 173.887 222.272 173.887 218.5Z" fill="#A259FF"/>
<path d="M173.887 204.833C173.887 201.061 176.948 198 180.72 198H187.553V211.667H180.72C176.948 211.667 173.887 208.605 173.887 204.833Z" fill="#F24E1E"/>
<path d="M187.553 198H194.387C198.159 198 201.22 201.061 201.22 204.833C201.22 208.605 198.159 211.667 194.387 211.667H187.553V198Z" fill="#FF7262"/>
<path d="M201.22 218.5C201.22 222.272 198.159 225.333 194.387 225.333C190.615 225.333 187.553 222.272 187.553 218.5C187.553 214.728 190.615 211.667 194.387 211.667C198.159 211.667 201.22 214.728 201.22 218.5Z" fill="#1ABCFE"/>
</g>
<g clip-path="url(#clip1_301_281)">
<path fill-rule="evenodd" clip-rule="evenodd" d="M257.611 216.725L240.198 199.313C239.196 198.31 237.569 198.31 236.566 199.313L232.95 202.929L237.537 207.516C238.603 207.156 239.825 207.397 240.675 208.247C241.529 209.102 241.768 210.335 241.4 211.404L245.82 215.825C246.89 215.457 248.124 215.695 248.978 216.551C250.172 217.744 250.172 219.678 248.978 220.872C247.784 222.067 245.85 222.067 244.655 220.872C243.757 219.973 243.535 218.655 243.99 217.548L239.867 213.426L239.867 224.275C240.158 224.419 240.432 224.611 240.675 224.853C241.869 226.046 241.869 227.98 240.675 229.175C239.481 230.369 237.546 230.369 236.353 229.175C235.159 227.98 235.159 226.046 236.353 224.853C236.648 224.558 236.989 224.336 237.353 224.186V213.236C236.989 213.087 236.648 212.865 236.353 212.569C235.449 211.666 235.231 210.338 235.694 209.228L231.173 204.705L219.233 216.645C218.23 217.648 218.23 219.275 219.233 220.278L236.647 237.691C237.649 238.694 239.275 238.694 240.279 237.691L257.611 220.359C258.614 219.356 258.614 217.728 257.611 216.725Z" fill="#DE4C36"/>
</g>
</g>
<defs>
<filter id="filter0_d_301_281" x="0" y="60" width="50" height="48" filterUnits="userSpaceOnUse" color-interpolation-filters="sRGB">
<feFlood flood-opacity="0" result="BackgroundImageFix"/>
<feColorMatrix in="SourceAlpha" type="matrix" values="0 0 0 0 0 0 0 0 0 0 0 0 0 0 0 0 0 0 127 0" result="hardAlpha"/>
<feOffset dy="4"/>
<feGaussianBlur stdDeviation="2"/>
<feComposite in2="hardAlpha" operator="out"/>
<feColorMatrix type="matrix" values="0 0 0 0 0 0 0 0 0 0 0 0 0 0 0 0 0 0 0.25 0"/>
<feBlend mode="normal" in2="BackgroundImageFix" result="effect1_dropShadow_301_281"/>
<feBlend mode="normal" in="SourceGraphic" in2="effect1_dropShadow_301_281" result="shape"/>
</filter>
<filter id="filter1_d_301_281" x="31" y="93" width="293" height="212" filterUnits="userSpaceOnUse" color-interpolation-filters="sRGB">
<feFlood flood-opacity="0" result="BackgroundImageFix"/>
<feColorMatrix in="SourceAlpha" type="matrix" values="0 0 0 0 0 0 0 0 0 0 0 0 0 0 0 0 0 0 127 0" result="hardAlpha"/>
<feOffset dy="4"/>
<feGaussianBlur stdDeviation="2"/>
<feComposite in2="hardAlpha" operator="out"/>
<feColorMatrix type="matrix" values="0 0 0 0 0 0 0 0 0 0 0 0 0 0 0 0 0 0 0.25 0"/>
<feBlend mode="normal" in2="BackgroundImageFix" result="effect1_dropShadow_301_281"/>
<feBlend mode="normal" in="SourceGraphic" in2="effect1_dropShadow_301_281" result="shape"/>
</filter>
<clipPath id="clip0_301_281">
<rect width="41" height="41" fill="white" transform="translate(167 198)"/>
</clipPath>
<clipPath id="clip1_301_281">
<rect width="40.0391" height="39.8833" fill="white" transform="translate(218.48 198.561)"/>
</clipPath>
</defs>
</svg>
