<svg width="600" height="450" viewBox="0 0 600 450" fill="none" xmlns="http://www.w3.org/2000/svg">
<g filter="url(#filter0_d_301_240)">
<path d="M55 37L97 55.0247L77.1226 60L72.2941 77L55 37Z" fill="#7C3AED"/>
<path d="M72.1964 75.514L55.9577 37.9551L95.4406 54.8996L77.0012 59.515L76.7207 59.5852L76.6417 59.8634L72.1964 75.514Z" stroke="white"/>
</g>
<g filter="url(#filter1_d_301_240)">
<rect x="86" y="70" width="285" height="204" rx="20" fill="#0F172A"/>
<rect x="86.5" y="70.5" width="284" height="203" rx="19.5" stroke="#0F2F76"/>
<path d="M122.495 124V107.708H116.677V105.055H131.237V107.708H125.418V124H122.495ZM136.791 124.379C135.437 124.379 134.256 124.099 133.245 123.54C132.235 122.963 131.441 122.16 130.864 121.131C130.304 120.085 130.025 118.876 130.025 117.505V117.18C130.025 115.791 130.304 114.582 130.864 113.553C131.423 112.507 132.199 111.704 133.191 111.145C134.202 110.567 135.365 110.279 136.682 110.279C137.963 110.279 139.082 110.567 140.038 111.145C141.013 111.704 141.77 112.489 142.312 113.499C142.853 114.51 143.123 115.691 143.123 117.045V118.1H132.866C132.902 119.273 133.29 120.211 134.03 120.915C134.788 121.6 135.726 121.943 136.845 121.943C137.891 121.943 138.676 121.709 139.199 121.24C139.741 120.77 140.156 120.229 140.444 119.616L142.745 120.806C142.492 121.312 142.122 121.844 141.635 122.403C141.166 122.963 140.543 123.432 139.768 123.811C138.992 124.189 137.999 124.379 136.791 124.379ZM132.893 115.962H140.282C140.21 114.952 139.849 114.167 139.199 113.608C138.55 113.03 137.702 112.742 136.655 112.742C135.609 112.742 134.752 113.03 134.084 113.608C133.435 114.167 133.038 114.952 132.893 115.962ZM152 124.379C150.719 124.379 149.555 124.108 148.509 123.567C147.48 123.026 146.659 122.241 146.046 121.212C145.451 120.184 145.153 118.948 145.153 117.505V117.153C145.153 115.71 145.451 114.483 146.046 113.472C146.659 112.444 147.48 111.659 148.509 111.118C149.555 110.558 150.719 110.279 152 110.279C153.281 110.279 154.373 110.513 155.275 110.982C156.177 111.451 156.898 112.074 157.44 112.85C157.999 113.626 158.36 114.483 158.522 115.421L155.816 115.989C155.726 115.394 155.536 114.852 155.248 114.365C154.959 113.878 154.553 113.49 154.03 113.202C153.506 112.913 152.848 112.769 152.054 112.769C151.278 112.769 150.575 112.949 149.943 113.31C149.33 113.653 148.843 114.158 148.482 114.825C148.121 115.475 147.94 116.269 147.94 117.207V117.451C147.94 118.389 148.121 119.192 148.482 119.859C148.843 120.527 149.33 121.032 149.943 121.375C150.575 121.718 151.278 121.889 152.054 121.889C153.227 121.889 154.12 121.591 154.733 120.996C155.347 120.382 155.735 119.607 155.897 118.668L158.603 119.291C158.387 120.211 157.999 121.059 157.44 121.835C156.898 122.611 156.177 123.233 155.275 123.702C154.373 124.153 153.281 124.379 152 124.379ZM161.142 124V105.055H163.93V112.552H164.363C164.543 112.209 164.796 111.875 165.12 111.551C165.463 111.226 165.905 110.964 166.446 110.766C167.006 110.549 167.709 110.441 168.557 110.441C169.568 110.441 170.461 110.667 171.237 111.118C172.031 111.569 172.653 112.209 173.104 113.039C173.555 113.851 173.781 114.834 173.781 115.989V124H170.993V116.206C170.993 115.051 170.704 114.203 170.127 113.662C169.55 113.102 168.756 112.823 167.745 112.823C166.591 112.823 165.662 113.202 164.958 113.959C164.272 114.717 163.93 115.818 163.93 117.261V124H161.142ZM189.697 124.379C188.272 124.379 187.009 124.126 185.908 123.621C184.808 123.116 183.942 122.376 183.31 121.402C182.697 120.41 182.39 119.21 182.39 117.802V117.126H185.286V117.802C185.286 119.138 185.683 120.139 186.477 120.806C187.289 121.474 188.362 121.808 189.697 121.808C191.05 121.808 192.07 121.528 192.755 120.969C193.441 120.392 193.784 119.652 193.784 118.75C193.784 118.154 193.622 117.667 193.297 117.288C192.972 116.909 192.512 116.612 191.917 116.395C191.321 116.161 190.608 115.944 189.778 115.746L188.777 115.502C187.568 115.213 186.513 114.862 185.611 114.447C184.727 114.014 184.041 113.445 183.554 112.742C183.067 112.038 182.823 111.136 182.823 110.035C182.823 108.917 183.094 107.96 183.635 107.166C184.194 106.373 184.961 105.759 185.935 105.326C186.91 104.893 188.055 104.677 189.373 104.677C190.69 104.677 191.862 104.902 192.891 105.353C193.937 105.804 194.758 106.472 195.354 107.356C195.949 108.24 196.247 109.35 196.247 110.685V111.659H193.351V110.685C193.351 109.873 193.179 109.214 192.837 108.709C192.512 108.204 192.052 107.834 191.456 107.599C190.861 107.365 190.166 107.248 189.373 107.248C188.218 107.248 187.316 107.491 186.666 107.978C186.035 108.447 185.719 109.106 185.719 109.954C185.719 110.531 185.854 111.009 186.125 111.388C186.414 111.749 186.829 112.047 187.37 112.281C187.911 112.516 188.588 112.723 189.4 112.904L190.401 113.147C191.628 113.418 192.71 113.77 193.649 114.203C194.587 114.618 195.327 115.186 195.868 115.908C196.409 116.63 196.68 117.559 196.68 118.696C196.68 119.832 196.391 120.825 195.814 121.673C195.254 122.521 194.451 123.188 193.405 123.675C192.359 124.144 191.123 124.379 189.697 124.379ZM204.159 124C203.348 124 202.698 123.756 202.211 123.269C201.742 122.782 201.507 122.133 201.507 121.321V113.012H197.827V110.658H201.507V106.246H204.295V110.658H208.273V113.012H204.295V120.834C204.295 121.375 204.547 121.645 205.053 121.645H207.84V124H204.159ZM214.986 124.379C214.029 124.379 213.172 124.217 212.415 123.892C211.675 123.567 211.08 123.089 210.628 122.457C210.195 121.826 209.979 121.059 209.979 120.157C209.979 119.237 210.195 118.479 210.628 117.884C211.08 117.27 211.684 116.81 212.442 116.503C213.218 116.197 214.093 116.043 215.067 116.043H219.126V115.177C219.126 114.401 218.892 113.779 218.423 113.31C217.954 112.841 217.232 112.606 216.258 112.606C215.301 112.606 214.571 112.832 214.066 113.283C213.56 113.734 213.227 114.32 213.064 115.042L210.466 114.203C210.683 113.481 211.025 112.832 211.495 112.254C211.982 111.659 212.622 111.181 213.416 110.82C214.21 110.459 215.166 110.279 216.285 110.279C218.017 110.279 219.379 110.721 220.371 111.605C221.364 112.489 221.86 113.743 221.86 115.367V120.861C221.86 121.402 222.112 121.673 222.618 121.673H223.754V124H221.67C221.039 124 220.525 123.838 220.128 123.513C219.731 123.188 219.532 122.746 219.532 122.187V122.106H219.126C218.982 122.376 218.766 122.692 218.477 123.053C218.188 123.414 217.764 123.729 217.205 124C216.646 124.253 215.906 124.379 214.986 124.379ZM215.392 122.078C216.51 122.078 217.412 121.763 218.098 121.131C218.784 120.482 219.126 119.598 219.126 118.479V118.208H215.229C214.49 118.208 213.894 118.371 213.443 118.696C212.992 119.002 212.767 119.462 212.767 120.076C212.767 120.689 213.001 121.176 213.47 121.537C213.939 121.898 214.58 122.078 215.392 122.078ZM231.669 124.379C230.388 124.379 229.224 124.108 228.177 123.567C227.149 123.026 226.328 122.241 225.715 121.212C225.119 120.184 224.821 118.948 224.821 117.505V117.153C224.821 115.71 225.119 114.483 225.715 113.472C226.328 112.444 227.149 111.659 228.177 111.118C229.224 110.558 230.388 110.279 231.669 110.279C232.95 110.279 234.041 110.513 234.943 110.982C235.845 111.451 236.567 112.074 237.108 112.85C237.668 113.626 238.029 114.483 238.191 115.421L235.485 115.989C235.394 115.394 235.205 114.852 234.916 114.365C234.628 113.878 234.222 113.49 233.698 113.202C233.175 112.913 232.517 112.769 231.723 112.769C230.947 112.769 230.243 112.949 229.612 113.31C228.998 113.653 228.511 114.158 228.15 114.825C227.789 115.475 227.609 116.269 227.609 117.207V117.451C227.609 118.389 227.789 119.192 228.15 119.859C228.511 120.527 228.998 121.032 229.612 121.375C230.243 121.718 230.947 121.889 231.723 121.889C232.895 121.889 233.789 121.591 234.402 120.996C235.015 120.382 235.403 119.607 235.566 118.668L238.272 119.291C238.056 120.211 237.668 121.059 237.108 121.835C236.567 122.611 235.845 123.233 234.943 123.702C234.041 124.153 232.95 124.379 231.669 124.379ZM240.811 124V105.055H243.598V115.854H244.031L249.282 110.658H252.989L246.25 117.126L253.206 124H249.525L244.031 118.452H243.598V124H240.811Z" fill="#949494"/>
<path d="M149.71 189.066C149.285 188.919 148.844 188.781 148.39 188.65C148.465 188.345 148.533 188.045 148.594 187.749C149.593 182.9 148.94 178.993 146.71 177.706C144.571 176.473 141.073 177.759 137.54 180.833C137.2 181.129 136.859 181.442 136.519 181.77C136.292 181.553 136.066 181.343 135.84 181.143C132.137 177.855 128.426 176.47 126.198 177.76C124.061 178.997 123.428 182.67 124.327 187.266C124.414 187.71 124.516 188.163 124.63 188.624C124.105 188.773 123.598 188.932 123.113 189.101C118.772 190.615 116 192.987 116 195.447C116 197.988 118.976 200.536 123.497 202.082C123.854 202.204 124.224 202.319 124.606 202.428C124.482 202.927 124.374 203.415 124.284 203.892C123.426 208.408 124.096 211.994 126.227 213.224C128.428 214.493 132.123 213.188 135.72 210.044C136.004 209.795 136.29 209.531 136.576 209.255C136.946 209.612 137.316 209.95 137.684 210.266C141.168 213.265 144.61 214.476 146.739 213.243C148.938 211.97 149.653 208.118 148.725 203.431C148.654 203.073 148.572 202.707 148.479 202.335C148.739 202.258 148.993 202.179 149.242 202.097C153.942 200.539 157 198.022 157 195.447C157 192.978 154.138 190.59 149.71 189.066ZM148.691 200.434C148.467 200.508 148.237 200.58 148.002 200.65C147.483 199.007 146.783 197.26 145.926 195.455C146.744 193.694 147.417 191.969 147.921 190.337C148.341 190.459 148.748 190.587 149.14 190.722C152.934 192.028 155.248 193.959 155.248 195.447C155.248 197.032 152.749 199.089 148.691 200.434ZM147.007 203.771C147.417 205.843 147.476 207.717 147.204 209.182C146.96 210.498 146.469 211.376 145.862 211.727C144.569 212.475 141.806 211.503 138.826 208.939C138.485 208.645 138.141 208.331 137.795 207.999C138.951 206.735 140.105 205.266 141.232 203.635C143.214 203.459 145.087 203.172 146.785 202.779C146.869 203.116 146.943 203.447 147.007 203.771ZM129.978 211.598C128.715 212.044 127.71 212.057 127.102 211.706C125.809 210.96 125.271 208.081 126.005 204.219C126.089 203.776 126.189 203.322 126.304 202.857C127.983 203.229 129.842 203.496 131.829 203.657C132.964 205.253 134.152 206.721 135.349 208.005C135.087 208.258 134.827 208.498 134.568 208.725C132.977 210.115 131.383 211.102 129.978 211.598ZM124.064 200.424C122.064 199.741 120.413 198.853 119.282 197.884C118.265 197.013 117.751 196.148 117.751 195.447C117.751 193.954 119.977 192.05 123.689 190.755C124.14 190.598 124.611 190.45 125.101 190.311C125.614 191.98 126.287 193.725 127.099 195.489C126.276 197.28 125.594 199.053 125.076 200.741C124.727 200.641 124.389 200.535 124.064 200.424ZM126.046 186.93C125.276 182.992 125.787 180.021 127.075 179.276C128.447 178.482 131.48 179.614 134.677 182.453C134.881 182.634 135.086 182.824 135.292 183.02C134.101 184.299 132.923 185.756 131.799 187.343C129.871 187.521 128.025 187.808 126.328 188.193C126.221 187.764 126.127 187.342 126.046 186.93ZM143.732 191.297C143.326 190.596 142.909 189.912 142.485 189.246C143.793 189.412 145.046 189.631 146.223 189.9C145.87 191.032 145.43 192.216 144.911 193.43C144.539 192.724 144.146 192.012 143.732 191.297ZM136.52 184.272C137.327 185.147 138.136 186.125 138.932 187.185C138.13 187.147 137.319 187.127 136.5 187.127C135.689 187.127 134.883 187.146 134.086 187.184C134.883 186.133 135.699 185.157 136.52 184.272ZM129.261 191.309C128.856 192.012 128.47 192.72 128.104 193.429C127.594 192.219 127.157 191.03 126.801 189.881C127.971 189.619 129.218 189.405 130.518 189.243C130.088 189.915 129.668 190.604 129.261 191.309V191.309ZM130.556 201.775C129.213 201.626 127.946 201.423 126.777 201.168C127.139 199.999 127.585 198.784 128.106 197.548C128.473 198.257 128.86 198.966 129.268 199.67H129.268C129.684 200.387 130.114 201.09 130.556 201.775ZM136.568 206.745C135.738 205.849 134.91 204.859 134.101 203.793C134.886 203.824 135.687 203.839 136.5 203.839C137.336 203.839 138.162 203.821 138.975 203.784C138.177 204.869 137.37 205.862 136.568 206.745ZM144.928 197.485C145.476 198.734 145.938 199.943 146.305 201.092C145.116 201.363 143.832 201.582 142.48 201.744C142.906 201.07 143.326 200.374 143.739 199.658C144.156 198.933 144.553 198.208 144.928 197.485ZM142.222 198.783C141.581 199.894 140.923 200.955 140.255 201.956C139.038 202.043 137.781 202.088 136.5 202.088C135.224 202.088 133.983 202.048 132.788 201.971C132.093 200.956 131.421 199.892 130.784 198.792H130.784C130.149 197.695 129.564 196.589 129.035 195.489C129.564 194.386 130.147 193.279 130.779 192.184L130.779 192.184C131.412 191.086 132.078 190.027 132.767 189.019C133.986 188.927 135.236 188.879 136.5 188.879H136.5C137.769 188.879 139.021 188.927 140.24 189.02C140.918 190.021 141.58 191.076 142.216 192.174C142.859 193.285 143.449 194.385 143.983 195.464C143.451 196.562 142.862 197.673 142.222 198.783ZM145.835 179.224C147.208 180.016 147.742 183.209 146.879 187.396C146.824 187.663 146.762 187.935 146.695 188.211C144.994 187.819 143.147 187.526 141.213 187.345C140.086 185.741 138.919 184.282 137.747 183.02C138.062 182.716 138.376 182.427 138.69 182.155C141.717 179.521 144.546 178.48 145.835 179.224ZM136.5 191.786C138.522 191.786 140.161 193.425 140.161 195.447C140.161 197.469 138.522 199.108 136.5 199.108C134.478 199.108 132.839 197.469 132.839 195.447C132.839 193.425 134.478 191.786 136.5 191.786Z" fill="#00D8FF"/>
<path fill-rule="evenodd" clip-rule="evenodd" d="M187.536 215.445C186.986 215.445 186.472 215.298 185.994 215.041L181.111 212.141C180.377 211.737 180.744 211.59 180.964 211.517C181.956 211.186 182.139 211.113 183.167 210.525C183.277 210.452 183.424 210.489 183.534 210.562L187.279 212.802C187.426 212.875 187.61 212.875 187.72 212.802L202.369 204.32C202.516 204.247 202.59 204.1 202.59 203.917V186.991C202.59 186.807 202.516 186.66 202.369 186.587L187.72 178.142C187.573 178.069 187.389 178.069 187.279 178.142L172.63 186.587C172.483 186.66 172.41 186.844 172.41 186.991V203.917C172.41 204.063 172.483 204.247 172.63 204.32L176.632 206.634C178.798 207.735 180.156 206.45 180.156 205.165V188.459C180.156 188.239 180.34 188.019 180.597 188.019H182.47C182.69 188.019 182.91 188.202 182.91 188.459V205.165C182.91 208.065 181.331 209.754 178.578 209.754C177.733 209.754 177.072 209.754 175.2 208.836L171.345 206.634C170.39 206.083 169.803 205.055 169.803 203.953V187.027C169.803 185.926 170.39 184.898 171.345 184.347L185.994 175.866C186.912 175.352 188.16 175.352 189.078 175.866L203.728 184.347C204.682 184.898 205.27 185.926 205.27 187.027V203.953C205.27 205.055 204.682 206.083 203.728 206.634L189.078 215.115C188.601 215.335 188.05 215.445 187.536 215.445ZM192.052 203.806C185.627 203.806 184.305 200.869 184.305 198.373C184.305 198.152 184.489 197.932 184.746 197.932H186.655C186.875 197.932 187.059 198.079 187.059 198.299C187.353 200.245 188.197 201.2 192.089 201.2C195.173 201.2 196.495 200.502 196.495 198.85C196.495 197.895 196.128 197.198 191.318 196.72C187.316 196.316 184.819 195.435 184.819 192.241C184.819 189.267 187.316 187.505 191.502 187.505C196.201 187.505 198.514 189.12 198.808 192.645C198.808 192.755 198.771 192.865 198.698 192.975C198.624 193.049 198.514 193.122 198.404 193.122H196.495C196.311 193.122 196.128 192.975 196.091 192.792C195.65 190.772 194.512 190.112 191.502 190.112C188.124 190.112 187.72 191.286 187.72 192.168C187.72 193.232 188.197 193.563 192.75 194.15C197.266 194.738 199.395 195.582 199.395 198.74C199.359 201.971 196.715 203.806 192.052 203.806Z" fill="#539E43"/>
<g clip-path="url(#clip0_301_240)">
<path d="M231.72 216C235.492 216 238.553 212.939 238.553 209.167V202.333H231.72C227.948 202.333 224.887 205.395 224.887 209.167C224.887 212.939 227.948 216 231.72 216Z" fill="#0ACF83"/>
<path d="M224.887 195.5C224.887 191.728 227.948 188.667 231.72 188.667H238.553V202.333H231.72C227.948 202.333 224.887 199.272 224.887 195.5Z" fill="#A259FF"/>
<path d="M224.887 181.833C224.887 178.061 227.948 175 231.72 175H238.553V188.667H231.72C227.948 188.667 224.887 185.605 224.887 181.833Z" fill="#F24E1E"/>
<path d="M238.553 175H245.387C249.159 175 252.22 178.061 252.22 181.833C252.22 185.605 249.159 188.667 245.387 188.667H238.553V175Z" fill="#FF7262"/>
<path d="M252.22 195.5C252.22 199.272 249.159 202.333 245.387 202.333C241.615 202.333 238.553 199.272 238.553 195.5C238.553 191.728 241.615 188.667 245.387 188.667C249.159 188.667 252.22 191.728 252.22 195.5Z" fill="#1ABCFE"/>
</g>
<g clip-path="url(#clip1_301_240)">
<path fill-rule="evenodd" clip-rule="evenodd" d="M308.611 193.725L291.198 176.313C290.196 175.31 288.569 175.31 287.566 176.313L283.95 179.929L288.537 184.516C289.603 184.156 290.825 184.397 291.675 185.247C292.529 186.102 292.768 187.335 292.4 188.404L296.82 192.825C297.89 192.457 299.124 192.695 299.978 193.551C301.172 194.744 301.172 196.678 299.978 197.872C298.784 199.067 296.85 199.067 295.655 197.872C294.757 196.973 294.535 195.655 294.99 194.548L290.867 190.426L290.867 201.275C291.158 201.419 291.432 201.611 291.675 201.853C292.869 203.046 292.869 204.98 291.675 206.175C290.481 207.369 288.546 207.369 287.353 206.175C286.159 204.98 286.159 203.046 287.353 201.853C287.648 201.558 287.989 201.336 288.353 201.186V190.236C287.989 190.087 287.648 189.865 287.353 189.569C286.449 188.666 286.231 187.338 286.694 186.228L282.173 181.705L270.233 193.645C269.23 194.648 269.23 196.275 270.233 197.278L287.647 214.691C288.649 215.694 290.275 215.694 291.279 214.691L308.611 197.359C309.614 196.356 309.614 194.728 308.611 193.725Z" fill="#DE4C36"/>
</g>
</g>
<defs>
<filter id="filter0_d_301_240" x="51" y="37" width="50" height="48" filterUnits="userSpaceOnUse" color-interpolation-filters="sRGB">
<feFlood flood-opacity="0" result="BackgroundImageFix"/>
<feColorMatrix in="SourceAlpha" type="matrix" values="0 0 0 0 0 0 0 0 0 0 0 0 0 0 0 0 0 0 127 0" result="hardAlpha"/>
<feOffset dy="4"/>
<feGaussianBlur stdDeviation="2"/>
<feComposite in2="hardAlpha" operator="out"/>
<feColorMatrix type="matrix" values="0 0 0 0 0 0 0 0 0 0 0 0 0 0 0 0 0 0 0.25 0"/>
<feBlend mode="normal" in2="BackgroundImageFix" result="effect1_dropShadow_301_240"/>
<feBlend mode="normal" in="SourceGraphic" in2="effect1_dropShadow_301_240" result="shape"/>
</filter>
<filter id="filter1_d_301_240" x="82" y="70" width="293" height="212" filterUnits="userSpaceOnUse" color-interpolation-filters="sRGB">
<feFlood flood-opacity="0" result="BackgroundImageFix"/>
<feColorMatrix in="SourceAlpha" type="matrix" values="0 0 0 0 0 0 0 0 0 0 0 0 0 0 0 0 0 0 127 0" result="hardAlpha"/>
<feOffset dy="4"/>
<feGaussianBlur stdDeviation="2"/>
<feComposite in2="hardAlpha" operator="out"/>
<feColorMatrix type="matrix" values="0 0 0 0 0 0 0 0 0 0 0 0 0 0 0 0 0 0 0.25 0"/>
<feBlend mode="normal" in2="BackgroundImageFix" result="effect1_dropShadow_301_240"/>
<feBlend mode="normal" in="SourceGraphic" in2="effect1_dropShadow_301_240" result="shape"/>
</filter>
<clipPath id="clip0_301_240">
<rect width="41" height="41" fill="white" transform="translate(218 175)"/>
</clipPath>
<clipPath id="clip1_301_240">
<rect width="40.0391" height="39.8833" fill="white" transform="translate(269.48 175.561)"/>
</clipPath>
</defs>
</svg>
