<svg width="600" height="450" viewBox="0 0 600 450" fill="none" xmlns="http://www.w3.org/2000/svg">
<g filter="url(#filter0_d_301_261)">
<path d="M35 68L77 86.0247L57.1226 91L52.2941 108L35 68Z" fill="#7C3AED"/>
<path d="M52.1964 106.514L35.9577 68.9551L75.4406 85.8996L57.0012 90.515L56.7207 90.5852L56.6417 90.8634L52.1964 106.514Z" stroke="white"/>
</g>
<g filter="url(#filter1_d_301_261)">
<rect x="66" y="101" width="285" height="204" rx="20" fill="#0F172A"/>
<rect x="66.5" y="101.5" width="284" height="203" rx="19.5" stroke="#0F2F76"/>
<path d="M102.495 155V138.708H96.6766V136.055H111.237V138.708H105.418V155H102.495ZM116.791 155.379C115.437 155.379 114.256 155.099 113.245 154.54C112.235 153.963 111.441 153.16 110.864 152.131C110.304 151.085 110.025 149.876 110.025 148.505V148.18C110.025 146.791 110.304 145.582 110.864 144.553C111.423 143.507 112.199 142.704 113.191 142.145C114.202 141.567 115.365 141.279 116.682 141.279C117.963 141.279 119.082 141.567 120.038 142.145C121.013 142.704 121.77 143.489 122.312 144.499C122.853 145.51 123.123 146.691 123.123 148.045V149.1H112.866C112.902 150.273 113.29 151.211 114.03 151.915C114.788 152.6 115.726 152.943 116.845 152.943C117.891 152.943 118.676 152.709 119.199 152.24C119.741 151.77 120.156 151.229 120.444 150.616L122.745 151.806C122.492 152.312 122.122 152.844 121.635 153.403C121.166 153.963 120.543 154.432 119.768 154.811C118.992 155.189 117.999 155.379 116.791 155.379ZM112.893 146.962H120.282C120.21 145.952 119.849 145.167 119.199 144.608C118.55 144.03 117.702 143.742 116.655 143.742C115.609 143.742 114.752 144.03 114.084 144.608C113.435 145.167 113.038 145.952 112.893 146.962ZM132 155.379C130.719 155.379 129.555 155.108 128.509 154.567C127.48 154.026 126.659 153.241 126.046 152.212C125.451 151.184 125.153 149.948 125.153 148.505V148.153C125.153 146.71 125.451 145.483 126.046 144.472C126.659 143.444 127.48 142.659 128.509 142.118C129.555 141.558 130.719 141.279 132 141.279C133.281 141.279 134.373 141.513 135.275 141.982C136.177 142.451 136.898 143.074 137.44 143.85C137.999 144.626 138.36 145.483 138.522 146.421L135.816 146.989C135.726 146.394 135.536 145.852 135.248 145.365C134.959 144.878 134.553 144.49 134.03 144.202C133.506 143.913 132.848 143.769 132.054 143.769C131.278 143.769 130.575 143.949 129.943 144.31C129.33 144.653 128.843 145.158 128.482 145.825C128.121 146.475 127.94 147.269 127.94 148.207V148.451C127.94 149.389 128.121 150.192 128.482 150.859C128.843 151.527 129.33 152.032 129.943 152.375C130.575 152.718 131.278 152.889 132.054 152.889C133.227 152.889 134.12 152.591 134.733 151.996C135.347 151.382 135.735 150.607 135.897 149.668L138.603 150.291C138.387 151.211 137.999 152.059 137.44 152.835C136.898 153.611 136.177 154.233 135.275 154.702C134.373 155.153 133.281 155.379 132 155.379ZM141.142 155V136.055H143.93V143.552H144.363C144.543 143.209 144.796 142.875 145.12 142.551C145.463 142.226 145.905 141.964 146.446 141.766C147.006 141.549 147.709 141.441 148.557 141.441C149.568 141.441 150.461 141.667 151.237 142.118C152.031 142.569 152.653 143.209 153.104 144.039C153.555 144.851 153.781 145.834 153.781 146.989V155H150.993V147.206C150.993 146.051 150.704 145.203 150.127 144.662C149.55 144.102 148.756 143.823 147.745 143.823C146.591 143.823 145.662 144.202 144.958 144.959C144.272 145.717 143.93 146.818 143.93 148.261V155H141.142ZM169.697 155.379C168.272 155.379 167.009 155.126 165.908 154.621C164.808 154.116 163.942 153.376 163.31 152.402C162.697 151.41 162.39 150.21 162.39 148.802V148.126H165.286V148.802C165.286 150.138 165.683 151.139 166.477 151.806C167.289 152.474 168.362 152.808 169.697 152.808C171.05 152.808 172.07 152.528 172.755 151.969C173.441 151.392 173.784 150.652 173.784 149.75C173.784 149.154 173.622 148.667 173.297 148.288C172.972 147.909 172.512 147.612 171.917 147.395C171.321 147.161 170.608 146.944 169.778 146.746L168.777 146.502C167.568 146.213 166.513 145.862 165.611 145.447C164.727 145.014 164.041 144.445 163.554 143.742C163.067 143.038 162.823 142.136 162.823 141.035C162.823 139.917 163.094 138.96 163.635 138.166C164.194 137.373 164.961 136.759 165.935 136.326C166.91 135.893 168.055 135.677 169.373 135.677C170.69 135.677 171.862 135.902 172.891 136.353C173.937 136.804 174.758 137.472 175.354 138.356C175.949 139.24 176.247 140.35 176.247 141.685V142.659H173.351V141.685C173.351 140.873 173.179 140.214 172.837 139.709C172.512 139.204 172.052 138.834 171.456 138.599C170.861 138.365 170.166 138.248 169.373 138.248C168.218 138.248 167.316 138.491 166.666 138.978C166.035 139.447 165.719 140.106 165.719 140.954C165.719 141.531 165.854 142.009 166.125 142.388C166.414 142.749 166.829 143.047 167.37 143.281C167.911 143.516 168.588 143.723 169.4 143.904L170.401 144.147C171.628 144.418 172.71 144.77 173.649 145.203C174.587 145.618 175.327 146.186 175.868 146.908C176.409 147.63 176.68 148.559 176.68 149.696C176.68 150.832 176.391 151.825 175.814 152.673C175.254 153.521 174.451 154.188 173.405 154.675C172.359 155.144 171.123 155.379 169.697 155.379ZM184.159 155C183.348 155 182.698 154.756 182.211 154.269C181.742 153.782 181.507 153.133 181.507 152.321V144.012H177.827V141.658H181.507V137.246H184.295V141.658H188.273V144.012H184.295V151.834C184.295 152.375 184.547 152.645 185.053 152.645H187.84V155H184.159ZM194.986 155.379C194.029 155.379 193.172 155.217 192.415 154.892C191.675 154.567 191.08 154.089 190.628 153.457C190.195 152.826 189.979 152.059 189.979 151.157C189.979 150.237 190.195 149.479 190.628 148.884C191.08 148.27 191.684 147.81 192.442 147.503C193.218 147.197 194.093 147.043 195.067 147.043H199.126V146.177C199.126 145.401 198.892 144.779 198.423 144.31C197.954 143.841 197.232 143.606 196.258 143.606C195.301 143.606 194.571 143.832 194.066 144.283C193.56 144.734 193.227 145.32 193.064 146.042L190.466 145.203C190.683 144.481 191.025 143.832 191.495 143.254C191.982 142.659 192.622 142.181 193.416 141.82C194.21 141.459 195.166 141.279 196.285 141.279C198.017 141.279 199.379 141.721 200.371 142.605C201.364 143.489 201.86 144.743 201.86 146.367V151.861C201.86 152.402 202.112 152.673 202.618 152.673H203.754V155H201.67C201.039 155 200.525 154.838 200.128 154.513C199.731 154.188 199.532 153.746 199.532 153.187V153.106H199.126C198.982 153.376 198.766 153.692 198.477 154.053C198.188 154.414 197.764 154.729 197.205 155C196.646 155.253 195.906 155.379 194.986 155.379ZM195.392 153.078C196.51 153.078 197.412 152.763 198.098 152.131C198.784 151.482 199.126 150.598 199.126 149.479V149.208H195.229C194.49 149.208 193.894 149.371 193.443 149.696C192.992 150.002 192.767 150.462 192.767 151.076C192.767 151.689 193.001 152.176 193.47 152.537C193.939 152.898 194.58 153.078 195.392 153.078ZM211.669 155.379C210.388 155.379 209.224 155.108 208.177 154.567C207.149 154.026 206.328 153.241 205.715 152.212C205.119 151.184 204.821 149.948 204.821 148.505V148.153C204.821 146.71 205.119 145.483 205.715 144.472C206.328 143.444 207.149 142.659 208.177 142.118C209.224 141.558 210.388 141.279 211.669 141.279C212.95 141.279 214.041 141.513 214.943 141.982C215.845 142.451 216.567 143.074 217.108 143.85C217.668 144.626 218.029 145.483 218.191 146.421L215.485 146.989C215.394 146.394 215.205 145.852 214.916 145.365C214.628 144.878 214.222 144.49 213.698 144.202C213.175 143.913 212.517 143.769 211.723 143.769C210.947 143.769 210.243 143.949 209.612 144.31C208.998 144.653 208.511 145.158 208.15 145.825C207.789 146.475 207.609 147.269 207.609 148.207V148.451C207.609 149.389 207.789 150.192 208.15 150.859C208.511 151.527 208.998 152.032 209.612 152.375C210.243 152.718 210.947 152.889 211.723 152.889C212.895 152.889 213.789 152.591 214.402 151.996C215.015 151.382 215.403 150.607 215.566 149.668L218.272 150.291C218.056 151.211 217.668 152.059 217.108 152.835C216.567 153.611 215.845 154.233 214.943 154.702C214.041 155.153 212.95 155.379 211.669 155.379ZM220.811 155V136.055H223.598V146.854H224.031L229.282 141.658H232.989L226.25 148.126L233.206 155H229.525L224.031 149.452H223.598V155H220.811Z" fill="#949494"/>
<path d="M129.71 220.066C129.285 219.919 128.844 219.781 128.39 219.65C128.465 219.345 128.533 219.045 128.594 218.749C129.593 213.9 128.94 209.993 126.71 208.706C124.571 207.473 121.073 208.759 117.54 211.833C117.2 212.129 116.859 212.442 116.519 212.77C116.292 212.553 116.066 212.343 115.84 212.143C112.137 208.855 108.426 207.47 106.198 208.76C104.061 209.997 103.428 213.67 104.327 218.266C104.414 218.71 104.516 219.163 104.63 219.624C104.105 219.773 103.598 219.932 103.113 220.101C98.7722 221.615 96 223.987 96 226.447C96 228.988 98.976 231.536 103.497 233.082C103.854 233.204 104.224 233.319 104.606 233.428C104.482 233.927 104.374 234.415 104.284 234.892C103.426 239.408 104.096 242.994 106.227 244.224C108.428 245.493 112.123 244.188 115.72 241.044C116.004 240.795 116.29 240.531 116.576 240.255C116.946 240.612 117.316 240.95 117.684 241.266C121.168 244.265 124.61 245.476 126.739 244.243C128.938 242.97 129.653 239.118 128.725 234.431C128.654 234.073 128.572 233.707 128.479 233.335C128.739 233.258 128.993 233.179 129.242 233.097C133.942 231.539 137 229.022 137 226.447C137 223.978 134.138 221.59 129.71 220.066ZM128.691 231.434C128.467 231.508 128.237 231.58 128.002 231.65C127.483 230.007 126.783 228.26 125.926 226.455C126.744 224.694 127.417 222.969 127.921 221.337C128.341 221.459 128.748 221.587 129.14 221.722C132.934 223.028 135.248 224.959 135.248 226.447C135.248 228.032 132.749 230.089 128.691 231.434ZM127.007 234.771C127.417 236.843 127.476 238.717 127.204 240.182C126.96 241.498 126.469 242.376 125.862 242.727C124.569 243.475 121.806 242.503 118.826 239.939C118.485 239.645 118.141 239.331 117.795 238.999C118.951 237.735 120.105 236.266 121.232 234.635C123.214 234.459 125.087 234.172 126.785 233.779C126.869 234.116 126.943 234.447 127.007 234.771ZM109.978 242.598C108.715 243.044 107.71 243.057 107.102 242.706C105.809 241.96 105.271 239.081 106.005 235.219C106.089 234.776 106.189 234.322 106.304 233.857C107.983 234.229 109.842 234.496 111.829 234.657C112.964 236.253 114.152 237.721 115.349 239.005C115.087 239.258 114.827 239.498 114.568 239.725C112.977 241.115 111.383 242.102 109.978 242.598ZM104.064 231.424C102.064 230.741 100.413 229.853 99.2817 228.884C98.2648 228.013 97.7514 227.148 97.7514 226.447C97.7514 224.954 99.9772 223.05 103.689 221.755C104.14 221.598 104.611 221.45 105.101 221.311C105.614 222.98 106.287 224.725 107.099 226.489C106.276 228.28 105.594 230.053 105.076 231.741C104.727 231.641 104.389 231.535 104.064 231.424ZM106.046 217.93C105.276 213.992 105.787 211.021 107.075 210.276C108.447 209.482 111.48 210.614 114.677 213.453C114.881 213.634 115.086 213.824 115.292 214.02C114.101 215.299 112.923 216.756 111.799 218.343C109.871 218.521 108.025 218.808 106.328 219.193C106.221 218.764 106.127 218.342 106.046 217.93ZM123.732 222.297C123.326 221.596 122.909 220.912 122.485 220.246C123.793 220.412 125.046 220.631 126.223 220.9C125.87 222.032 125.43 223.216 124.911 224.43C124.539 223.724 124.146 223.012 123.732 222.297ZM116.52 215.272C117.327 216.147 118.136 217.125 118.932 218.185C118.13 218.147 117.319 218.127 116.5 218.127C115.689 218.127 114.883 218.146 114.086 218.184C114.883 217.133 115.699 216.157 116.52 215.272ZM109.261 222.309C108.856 223.012 108.47 223.72 108.104 224.429C107.594 223.219 107.157 222.03 106.801 220.881C107.971 220.619 109.218 220.405 110.518 220.243C110.088 220.915 109.668 221.604 109.261 222.309V222.309ZM110.556 232.775C109.213 232.626 107.946 232.423 106.777 232.168C107.139 230.999 107.585 229.784 108.106 228.548C108.473 229.257 108.86 229.966 109.268 230.67H109.268C109.684 231.387 110.114 232.09 110.556 232.775ZM116.568 237.745C115.738 236.849 114.91 235.859 114.101 234.793C114.886 234.824 115.687 234.839 116.5 234.839C117.336 234.839 118.162 234.821 118.975 234.784C118.177 235.869 117.37 236.862 116.568 237.745ZM124.928 228.485C125.476 229.734 125.938 230.943 126.305 232.092C125.116 232.363 123.832 232.582 122.48 232.744C122.906 232.07 123.326 231.374 123.739 230.658C124.156 229.933 124.553 229.208 124.928 228.485ZM122.222 229.783C121.581 230.894 120.923 231.955 120.255 232.956C119.038 233.043 117.781 233.088 116.5 233.088C115.224 233.088 113.983 233.048 112.788 232.971C112.093 231.956 111.421 230.892 110.784 229.792H110.784C110.149 228.695 109.564 227.589 109.035 226.489C109.564 225.386 110.147 224.279 110.779 223.184L110.779 223.184C111.412 222.086 112.078 221.027 112.767 220.019C113.986 219.927 115.236 219.879 116.5 219.879H116.5C117.769 219.879 119.021 219.927 120.24 220.02C120.918 221.021 121.58 222.076 122.216 223.174C122.859 224.285 123.449 225.385 123.983 226.464C123.451 227.562 122.862 228.673 122.222 229.783ZM125.835 210.224C127.208 211.016 127.742 214.209 126.879 218.396C126.824 218.663 126.762 218.935 126.695 219.211C124.994 218.819 123.147 218.526 121.213 218.345C120.086 216.741 118.919 215.282 117.747 214.02C118.062 213.716 118.376 213.427 118.69 213.155C121.717 210.521 124.546 209.48 125.835 210.224ZM116.5 222.786C118.522 222.786 120.161 224.425 120.161 226.447C120.161 228.469 118.522 230.108 116.5 230.108C114.478 230.108 112.839 228.469 112.839 226.447C112.839 224.425 114.478 222.786 116.5 222.786Z" fill="#00D8FF"/>
<path fill-rule="evenodd" clip-rule="evenodd" d="M167.536 246.445C166.986 246.445 166.472 246.298 165.994 246.041L161.111 243.141C160.377 242.737 160.744 242.59 160.964 242.517C161.956 242.186 162.139 242.113 163.167 241.525C163.277 241.452 163.424 241.489 163.534 241.562L167.279 243.802C167.426 243.875 167.61 243.875 167.72 243.802L182.369 235.32C182.516 235.247 182.59 235.1 182.59 234.917V217.991C182.59 217.807 182.516 217.66 182.369 217.587L167.72 209.142C167.573 209.069 167.389 209.069 167.279 209.142L152.63 217.587C152.483 217.66 152.41 217.844 152.41 217.991V234.917C152.41 235.063 152.483 235.247 152.63 235.32L156.632 237.634C158.798 238.735 160.156 237.45 160.156 236.165V219.459C160.156 219.239 160.34 219.019 160.597 219.019H162.47C162.69 219.019 162.91 219.202 162.91 219.459V236.165C162.91 239.065 161.331 240.754 158.578 240.754C157.733 240.754 157.072 240.754 155.2 239.836L151.345 237.634C150.39 237.083 149.803 236.055 149.803 234.953V218.027C149.803 216.926 150.39 215.898 151.345 215.347L165.994 206.866C166.912 206.352 168.16 206.352 169.078 206.866L183.728 215.347C184.682 215.898 185.27 216.926 185.27 218.027V234.953C185.27 236.055 184.682 237.083 183.728 237.634L169.078 246.115C168.601 246.335 168.05 246.445 167.536 246.445ZM172.052 234.806C165.627 234.806 164.305 231.869 164.305 229.373C164.305 229.152 164.489 228.932 164.746 228.932H166.655C166.875 228.932 167.059 229.079 167.059 229.299C167.353 231.245 168.197 232.2 172.089 232.2C175.173 232.2 176.495 231.502 176.495 229.85C176.495 228.895 176.128 228.198 171.318 227.72C167.316 227.316 164.819 226.435 164.819 223.241C164.819 220.267 167.316 218.505 171.502 218.505C176.201 218.505 178.514 220.12 178.808 223.645C178.808 223.755 178.771 223.865 178.698 223.975C178.624 224.049 178.514 224.122 178.404 224.122H176.495C176.311 224.122 176.128 223.975 176.091 223.792C175.65 221.772 174.512 221.112 171.502 221.112C168.124 221.112 167.72 222.286 167.72 223.168C167.72 224.232 168.197 224.563 172.75 225.15C177.266 225.738 179.395 226.582 179.395 229.74C179.359 232.971 176.715 234.806 172.052 234.806Z" fill="#539E43"/>
<g clip-path="url(#clip0_301_261)">
<path d="M211.72 247C215.492 247 218.553 243.939 218.553 240.167V233.333H211.72C207.948 233.333 204.887 236.395 204.887 240.167C204.887 243.939 207.948 247 211.72 247Z" fill="#0ACF83"/>
<path d="M204.887 226.5C204.887 222.728 207.948 219.667 211.72 219.667H218.553V233.333H211.72C207.948 233.333 204.887 230.272 204.887 226.5Z" fill="#A259FF"/>
<path d="M204.887 212.833C204.887 209.061 207.948 206 211.72 206H218.553V219.667H211.72C207.948 219.667 204.887 216.605 204.887 212.833Z" fill="#F24E1E"/>
<path d="M218.553 206H225.387C229.159 206 232.22 209.061 232.22 212.833C232.22 216.605 229.159 219.667 225.387 219.667H218.553V206Z" fill="#FF7262"/>
<path d="M232.22 226.5C232.22 230.272 229.159 233.333 225.387 233.333C221.615 233.333 218.553 230.272 218.553 226.5C218.553 222.728 221.615 219.667 225.387 219.667C229.159 219.667 232.22 222.728 232.22 226.5Z" fill="#1ABCFE"/>
</g>
<g clip-path="url(#clip1_301_261)">
<path fill-rule="evenodd" clip-rule="evenodd" d="M288.611 224.725L271.198 207.313C270.196 206.31 268.569 206.31 267.566 207.313L263.95 210.929L268.537 215.516C269.603 215.156 270.825 215.397 271.675 216.247C272.529 217.102 272.768 218.335 272.4 219.404L276.82 223.825C277.89 223.457 279.124 223.695 279.978 224.551C281.172 225.744 281.172 227.678 279.978 228.872C278.784 230.067 276.85 230.067 275.655 228.872C274.757 227.973 274.535 226.655 274.99 225.548L270.867 221.426L270.867 232.275C271.158 232.419 271.432 232.611 271.675 232.853C272.869 234.046 272.869 235.98 271.675 237.175C270.481 238.369 268.546 238.369 267.353 237.175C266.159 235.98 266.159 234.046 267.353 232.853C267.648 232.558 267.989 232.336 268.353 232.186V221.236C267.989 221.087 267.648 220.865 267.353 220.569C266.449 219.666 266.231 218.338 266.694 217.228L262.173 212.705L250.233 224.645C249.23 225.648 249.23 227.275 250.233 228.278L267.647 245.691C268.649 246.694 270.275 246.694 271.279 245.691L288.611 228.359C289.614 227.356 289.614 225.728 288.611 224.725Z" fill="#DE4C36"/>
</g>
</g>
<defs>
<filter id="filter0_d_301_261" x="31" y="68" width="50" height="48" filterUnits="userSpaceOnUse" color-interpolation-filters="sRGB">
<feFlood flood-opacity="0" result="BackgroundImageFix"/>
<feColorMatrix in="SourceAlpha" type="matrix" values="0 0 0 0 0 0 0 0 0 0 0 0 0 0 0 0 0 0 127 0" result="hardAlpha"/>
<feOffset dy="4"/>
<feGaussianBlur stdDeviation="2"/>
<feComposite in2="hardAlpha" operator="out"/>
<feColorMatrix type="matrix" values="0 0 0 0 0 0 0 0 0 0 0 0 0 0 0 0 0 0 0.25 0"/>
<feBlend mode="normal" in2="BackgroundImageFix" result="effect1_dropShadow_301_261"/>
<feBlend mode="normal" in="SourceGraphic" in2="effect1_dropShadow_301_261" result="shape"/>
</filter>
<filter id="filter1_d_301_261" x="62" y="101" width="293" height="212" filterUnits="userSpaceOnUse" color-interpolation-filters="sRGB">
<feFlood flood-opacity="0" result="BackgroundImageFix"/>
<feColorMatrix in="SourceAlpha" type="matrix" values="0 0 0 0 0 0 0 0 0 0 0 0 0 0 0 0 0 0 127 0" result="hardAlpha"/>
<feOffset dy="4"/>
<feGaussianBlur stdDeviation="2"/>
<feComposite in2="hardAlpha" operator="out"/>
<feColorMatrix type="matrix" values="0 0 0 0 0 0 0 0 0 0 0 0 0 0 0 0 0 0 0.25 0"/>
<feBlend mode="normal" in2="BackgroundImageFix" result="effect1_dropShadow_301_261"/>
<feBlend mode="normal" in="SourceGraphic" in2="effect1_dropShadow_301_261" result="shape"/>
</filter>
<clipPath id="clip0_301_261">
<rect width="41" height="41" fill="white" transform="translate(198 206)"/>
</clipPath>
<clipPath id="clip1_301_261">
<rect width="40.0391" height="39.8833" fill="white" transform="translate(249.48 206.561)"/>
</clipPath>
</defs>
</svg>
