<svg width="40" height="40" viewBox="0 0 40 40" fill="none" xmlns="http://www.w3.org/2000/svg">
<circle cx="20" cy="20" r="19.65" fill="white" fill-opacity="0.04" stroke="#575757" stroke-width="0.7"/>
<path fill-rule="evenodd" clip-rule="evenodd" d="M17.0441 7.625H25.164C27.6854 7.625 29.7316 9.67112 29.7316 12.1925C29.7316 13.9595 28.7267 15.493 27.2577 16.2525C28.7267 17.012 29.7316 18.5455 29.7316 20.3125C29.7316 22.8339 27.6854 24.88 25.164 24.88C23.7297 24.88 22.4493 24.2179 21.6117 23.1829V28.4325C21.6117 30.9539 19.5655 33 17.0441 33C14.5227 33 12.4766 30.9539 12.4766 28.4325C12.4766 26.6655 13.4814 25.132 14.9505 24.3724C13.4814 23.6129 12.4766 22.0794 12.4766 20.3125C12.4766 18.5455 13.4814 17.012 14.9504 16.2525C13.4814 15.493 12.4766 13.9595 12.4766 12.1925C12.4766 9.67112 14.5227 7.625 17.0441 7.625ZM13.4916 12.1925C13.4916 10.2317 15.0833 8.64 17.0441 8.64H20.5964V15.7449H17.0441L17.0331 15.7449C15.0773 15.739 13.4916 14.1497 13.4916 12.1925ZM20.5967 20.2642C20.5965 20.2802 20.5964 20.2963 20.5964 20.3125C20.5964 20.3286 20.5965 20.3447 20.5967 20.3608V23.8649H17.0441C15.0833 23.865 13.4916 22.2733 13.4916 20.3125C13.4916 18.3553 15.0774 16.7658 17.0332 16.76L17.0441 16.76H20.5964L20.5967 20.2642ZM21.6117 20.355V20.2699C21.6345 18.3335 23.2095 16.7678 25.1494 16.76H25.164C25.1676 16.76 25.1713 16.76 25.1749 16.76C27.1308 16.7658 28.7166 18.3553 28.7166 20.3125C28.7166 22.2733 27.1249 23.865 25.164 23.865C23.2173 23.865 21.6345 22.2963 21.6117 20.355ZM22.2938 16.76C22.0432 16.9627 21.8145 17.1914 21.6117 17.442V16.76H22.2938ZM25.175 15.7449C25.1713 15.7449 25.1677 15.7449 25.164 15.7449C25.1584 15.7449 25.1529 15.7449 25.1474 15.745H21.6117V8.64H25.164C27.1249 8.64 28.7166 10.2317 28.7166 12.1925C28.7166 14.1497 27.1308 15.739 25.175 15.7449ZM17.0441 24.8799C15.0833 24.8799 13.4916 26.4716 13.4916 28.4325C13.4916 30.3933 15.0833 31.985 17.0441 31.985C19.005 31.985 20.5967 30.3933 20.5967 28.4325V24.8799H17.0441Z" fill="#BABABA"/>
</svg>
